<?xml version="1.0" standalone="no"?>
<!DOCTYPE svg PUBLIC "-//W3C//DTD SVG 20010904//EN"
 "http://www.w3.org/TR/2001/REC-SVG-20010904/DTD/svg10.dtd">
<svg version="1.0" xmlns="http://www.w3.org/2000/svg"
 width="1060.000000pt" height="728.000000pt" viewBox="0 0 1060.000000 728.000000"
 preserveAspectRatio="xMidYMid meet">

<g transform="translate(0.000000,728.000000) scale(0.100000,-0.100000)"
fill="#000000" stroke="none">
<path d="M0 6850 l0 -430 23 -5 c339 -80 897 -174 1302 -220 77 -9 169 -20
205 -25 122 -18 698 -72 1005 -95 519 -38 935 -54 935 -37 -1 27 -23 35 -119
41 -100 7 -116 12 -116 34 0 7 -27 17 -61 23 -33 6 -65 14 -71 17 -6 4 -13 -3
-16 -15 -13 -47 -22 -2 -19 91 3 81 1 101 -13 114 -9 10 -20 15 -25 12 -4 -2
-11 -55 -16 -117 l-8 -113 -7 165 c-7 198 -11 216 -49 223 -15 4 -39 9 -54 13
-22 5 -26 3 -26 -15 0 -12 -4 -21 -9 -21 -6 0 -13 -21 -18 -47 l-8 -48 -5 54
c-5 51 -6 54 -45 69 -22 9 -42 18 -45 22 -9 11 -128 40 -163 40 -25 0 -34 -4
-34 -17 1 -101 -3 -123 -23 -123 -22 0 -23 -3 -21 -75 0 -38 -2 -45 -8 -30 -5
11 -10 34 -10 52 -1 37 -27 158 -41 192 -9 19 -16 22 -42 19 -20 -3 -38 0 -46
8 -7 8 -24 14 -38 14 -23 0 -24 -3 -24 -68 0 -41 -5 -75 -13 -86 -14 -18 -16
-19 -102 -4 -13 2 -19 -2 -17 -11 1 -7 -3 -20 -9 -27 -7 -9 -11 -42 -10 -82 1
-37 -3 -80 -7 -97 l-9 -30 -7 43 c-4 23 -8 64 -8 90 0 86 -2 88 -112 106 -55
9 -70 15 -72 30 -3 21 -21 36 -45 36 -8 0 -19 4 -25 9 -5 5 -34 12 -65 15
l-57 7 -9 -38 c-7 -30 -13 -37 -29 -34 -42 8 -48 5 -57 -27 -6 -20 -15 -31
-23 -28 -21 8 -125 25 -178 30 -41 3 -49 1 -53 -15 -5 -19 -23 -27 -23 -10 0
5 -11 12 -24 15 -18 4 -26 14 -28 33 -3 26 -8 29 -87 47 l-84 19 7 86 c4 47 8
99 10 114 4 33 -10 42 -44 29 -21 -8 -106 15 -270 72 -45 15 -49 44 -20 156
12 47 17 86 12 89 -5 3 -11 12 -14 20 -2 8 -28 22 -57 31 -52 17 -52 17 -60
-4 -5 -11 -12 -40 -16 -63 -4 -24 -11 -45 -15 -48 -19 -12 -19 17 0 79 12 37
18 72 14 79 -11 18 -42 38 -103 70 -49 24 -64 27 -162 27 l-107 0 -7 -42 c-11
-65 -54 -240 -61 -247 -3 -3 -3 10 0 29 10 58 26 203 26 232 l0 28 -135 0
-135 0 0 -430z"/>
<path d="M9884 7248 c-56 -37 -55 -26 -18 -155 10 -35 12 -69 7 -110 -7 -55
-7 -56 -14 -23 -4 19 -17 75 -29 124 l-22 88 -32 -5 c-61 -12 -91 -18 -94 -21
-3 -3 5 -39 48 -231 11 -51 21 -135 15 -135 -2 0 -9 18 -15 40 -6 22 -16 40
-22 40 -16 0 -92 -22 -101 -30 -4 -4 4 -69 18 -144 27 -149 29 -166 17 -166
-4 0 -18 55 -30 123 -13 67 -26 132 -29 145 -6 25 -27 28 -87 11 l-39 -11 6
-76 c4 -43 14 -101 22 -131 16 -51 18 -53 46 -47 16 3 29 1 29 -4 0 -6 -9 -10
-19 -10 -11 0 -26 -2 -34 -6 -17 -6 -32 42 -50 161 -12 76 -14 80 -40 83 l-27
3 6 -125 c6 -103 5 -126 -7 -131 -8 -2 -82 -6 -165 -7 l-152 -3 -6 50 c-3 28
-6 94 -6 147 l0 98 -32 -7 c-18 -3 -35 -8 -38 -10 -3 -3 -5 -35 -4 -71 l1 -67
-12 63 c-7 35 -18 69 -24 75 -6 6 -47 12 -92 14 -97 3 -93 8 -106 -158 l-8
-114 -5 95 -5 95 -57 3 c-62 3 -65 6 -59 70 1 13 -3 30 -9 37 -6 7 -9 18 -8
25 2 7 -8 16 -21 21 -20 8 -22 7 -12 -5 7 -8 10 -19 7 -25 -4 -5 0 -16 9 -24
12 -13 12 -17 1 -26 -15 -12 -19 -61 -5 -61 4 0 2 -12 -6 -27 -8 -16 -17 -40
-20 -55 -6 -34 -30 -58 -57 -58 -15 0 -18 4 -13 18 10 23 18 62 9 42 -7 -16
-24 -30 -36 -30 -5 0 -8 20 -8 43 0 24 -3 47 -7 51 -4 3 -6 28 -4 55 1 28 -2
52 -9 56 -6 4 -8 15 -5 25 3 10 -1 25 -10 33 -8 9 -15 26 -15 38 0 20 -2 21
-14 9 -12 -12 -15 -63 -18 -252 -2 -131 -6 -238 -10 -238 -5 0 -8 -13 -8 -30
0 -16 -4 -30 -8 -30 -5 0 -14 -10 -20 -22 -6 -13 -11 -17 -11 -10 -1 6 -10 12
-21 12 -16 0 -20 7 -20 33 0 18 -6 39 -12 45 -8 8 -9 15 -3 20 13 9 7 144 -6
136 -13 -7 -11 3 4 26 10 17 9 22 -2 30 -12 7 -12 12 -3 23 14 17 6 47 -13 47
-19 0 -22 -15 -24 -118 -1 -52 -5 -101 -8 -109 -4 -11 -2 -14 5 -9 7 4 20 2
29 -4 16 -10 16 -11 1 -6 -9 2 -21 -1 -27 -7 -11 -14 -18 -138 -8 -154 7 -12
-21 -22 -40 -16 -18 6 -16 23 1 23 9 0 12 7 9 19 -3 12 -11 17 -22 14 -11 -3
-21 2 -25 12 -4 13 -2 15 13 10 16 -5 18 -2 14 17 -4 13 -12 27 -20 31 -7 4
-13 13 -13 18 0 6 5 7 10 4 6 -4 10 6 10 24 0 16 -4 33 -10 36 -16 10 -12 28
4 22 15 -6 34 29 22 40 -3 4 -1 12 5 19 8 10 3 12 -28 8 -91 -12 -84 2 -77
-147 3 -72 1 -152 -4 -177 l-10 -45 -1 65 c-1 61 -22 269 -37 373 l-7 47 -41
0 c-47 0 -212 -25 -239 -35 -14 -6 -17 -16 -12 -59 5 -53 3 -50 -21 32 -6 20
-31 14 -38 -10 -3 -13 -6 -51 -6 -84 l0 -62 -47 -6 c-94 -13 -104 -17 -114
-44 -6 -15 -11 -96 -10 -179 0 -92 -4 -153 -9 -153 -6 0 -11 21 -12 48 0 26
-2 54 -2 62 -1 12 -15 15 -70 13 -38 -2 -72 -5 -75 -9 -3 -3 -5 -35 -4 -70 1
-37 -2 -64 -8 -64 -5 0 -12 6 -14 13 -7 18 -126 10 -140 -10 -6 -8 -27 -19
-45 -24 -34 -8 57 -7 305 7 146 7 148 8 141 47 -4 18 -17 85 -30 149 -22 116
-20 139 12 119 15 -9 32 -126 32 -223 l0 -78 33 0 c17 0 115 7 217 15 523 43
470 42 470 10 0 -14 4 -25 9 -25 12 0 5 48 -9 65 -15 18 -9 19 24 4 14 -7 23
-16 20 -20 -3 -5 0 -9 5 -9 7 0 11 -53 11 -155 0 -85 -4 -155 -9 -155 -15 0
-32 27 -25 43 3 8 1 18 -4 21 -6 3 -8 23 -5 45 3 21 1 41 -4 44 -6 4 -13 -31
-17 -88 -3 -52 -9 -101 -12 -110 -4 -9 1 -17 11 -21 26 -10 36 8 20 39 -12 24
-12 27 3 27 9 0 22 -4 27 -8 13 -9 16 -44 4 -36 -6 3 -8 -6 -5 -20 5 -26 -8
-36 -17 -13 -3 7 -6 5 -6 -5 -1 -21 -12 -23 -29 -6 -9 9 -12 7 -12 -10 0 -20
5 -22 68 -24 88 -3 117 -1 149 7 28 7 28 -4 6 178 -4 39 -2 47 11 47 9 0 19 7
22 15 4 8 10 12 15 9 15 -9 51 16 45 32 -3 8 1 14 8 14 19 0 39 57 23 63 -8 2
-6 9 6 21 19 20 23 66 5 66 -7 0 -4 6 7 14 11 7 56 16 100 20 114 10 757 84
835 96 36 6 178 26 315 46 138 19 357 53 487 74 131 22 240 40 243 40 3 0 5
191 5 425 l0 425 -100 0 c-85 0 -100 -2 -100 -16 0 -9 11 -58 25 -110 28 -105
31 -138 13 -132 -26 8 -57 95 -84 236 -4 22 -5 22 -212 22 l-208 0 -50 -32z
m-7 -360 c-3 -8 -6 -5 -6 6 -1 11 2 17 5 13 3 -3 4 -12 1 -19z m-1484 -108
c-3 -11 -7 -20 -9 -20 -2 0 -4 9 -4 20 0 11 4 20 9 20 5 0 7 -9 4 -20z m1364
-32 c-3 -8 -6 -5 -6 6 -1 11 2 17 5 13 3 -3 4 -12 1 -19z m-1365 -80 c-7 -7
-12 -8 -12 -2 0 14 12 26 19 19 2 -3 -1 -11 -7 -17z m235 -4 c-3 -3 -12 -4
-19 -1 -8 3 -5 6 6 6 11 1 17 -2 13 -5z m-27 -74 c0 -5 -4 -10 -10 -10 -5 0
-10 5 -10 10 0 6 5 10 10 10 6 0 10 -4 10 -10z m-146 -35 c-4 -8 -11 -12 -16
-9 -6 4 -5 10 3 15 19 12 19 11 13 -6z m-787 -17 c-3 -8 -6 -5 -6 6 -1 11 2
17 5 13 3 -3 4 -12 1 -19z m573 -4 c0 -8 -4 -12 -10 -9 -5 3 -10 13 -10 21 0
8 5 12 10 9 6 -3 10 -13 10 -21z m161 -1 c-8 -15 -10 -15 -11 -2 0 17 10 32
18 25 2 -3 -1 -13 -7 -23z m166 -29 c-3 -3 -12 -4 -19 -1 -8 3 -5 6 6 6 11 1
17 -2 13 -5z m-77 -36 c0 -19 -6 -23 -33 -25 -27 -2 -29 0 -16 10 9 7 14 18
12 25 -3 7 4 12 16 12 15 0 21 -6 21 -22z m47 -10 c-3 -7 -5 -2 -5 12 0 14 2
19 5 13 2 -7 2 -19 0 -25z m-145 -40 c-7 -7 -12 -8 -12 -2 0 14 12 26 19 19 2
-3 -1 -11 -7 -17z m-159 -23 c-3 -9 -8 -14 -10 -11 -3 3 -2 9 2 15 9 16 15 13
8 -4z m161 -80 c-6 -16 -24 -21 -24 -7 0 11 11 22 21 22 5 0 6 -7 3 -15z m61
5 c-3 -5 -11 -10 -16 -10 -6 0 -7 5 -4 10 3 6 11 10 16 10 6 0 7 -4 4 -10z
m125 -57 c0 -92 -21 -211 -41 -229 -16 -15 -17 -14 -13 8 3 19 2 18 -7 -4 -6
-16 -15 -28 -20 -28 -5 0 -9 -9 -9 -20 0 -11 -4 -20 -10 -20 -5 0 -10 6 -10
14 0 8 -6 17 -12 20 -9 3 -3 13 17 30 26 22 27 25 7 19 -19 -5 -22 -1 -22 27
0 27 -3 32 -20 27 -11 -3 -20 -1 -20 4 0 5 9 9 20 9 11 0 20 6 20 14 0 8 12
17 26 20 25 7 26 9 22 61 -3 30 -1 55 3 55 4 0 11 9 14 21 4 12 12 18 21 15 8
-3 14 -1 14 4 0 6 5 10 10 10 6 0 10 -26 10 -57z m-285 26 c12 -19 -5 -23 -22
-6 -16 16 -16 17 -1 17 9 0 20 -5 23 -11z m373 -15 c16 10 15 -7 0 -22 -10
-10 -10 -15 2 -22 9 -6 10 -10 3 -10 -6 0 -17 -2 -25 -5 -9 -4 -13 7 -15 41
-1 39 0 43 11 28 7 -9 18 -14 24 -10z m-438 -4 c0 -5 -5 -10 -11 -10 -5 0 -7
5 -4 10 3 6 8 10 11 10 2 0 4 -4 4 -10z m35 -20 c-3 -5 -11 -10 -16 -10 -6 0
-7 5 -4 10 3 6 11 10 16 10 6 0 7 -4 4 -10z m68 -15 c4 -8 2 -17 -3 -20 -6 -4
-10 -4 -10 -1 0 2 -3 11 -6 20 -3 9 -2 16 4 16 5 0 12 -7 15 -15z m127 -15
c-20 -13 -33 -13 -25 0 3 6 14 10 23 10 15 0 15 -2 2 -10z m-84 -65 c-3 -9
-11 -13 -16 -10 -8 5 -7 11 1 21 14 18 24 11 15 -11z m11 -100 c-4 -8 -11 -15
-17 -15 -6 0 -6 7 2 20 14 22 24 19 15 -5z m48 -74 c-3 -6 -11 -11 -17 -11 -6
0 -6 6 2 15 14 17 26 13 15 -4z m-45 -86 c-7 -9 -15 -13 -18 -10 -3 2 1 11 8
20 7 9 15 13 18 10 3 -2 -1 -11 -8 -20z m50 -25 c-24 -15 -37 -11 -16 5 11 8
22 12 25 9 3 -3 -1 -9 -9 -14z m-46 -55 c-7 -17 -20 -20 -28 -6 -4 5 0 12 6
14 23 9 28 7 22 -8z m68 -77 c-6 -6 -15 -8 -19 -4 -4 4 -1 11 7 16 19 12 27 3
12 -12z m-76 -13 c-3 -9 -11 -13 -16 -10 -8 5 -7 11 1 21 14 18 24 11 15 -11z"/>
<path d="M8552 6210 c0 -14 2 -19 5 -12 2 6 2 18 0 25 -3 6 -5 1 -5 -13z"/>
<path d="M8542 6115 c0 -16 2 -22 5 -12 2 9 2 23 0 30 -3 6 -5 -1 -5 -18z"/>
<path d="M8238 6988 c-3 -7 -5 -45 -6 -85 0 -40 -3 -76 -6 -81 -8 -14 3 -20
25 -15 18 5 26 34 20 73 -1 8 -3 37 -4 64 -2 47 -19 72 -29 44z m22 -129 c0
-5 -4 -9 -10 -9 -5 0 -10 7 -10 16 0 8 5 12 10 9 6 -3 10 -10 10 -16z"/>
<path d="M8334 6765 c0 -60 1 -84 3 -52 2 32 2 81 0 110 -2 29 -3 3 -3 -58z"/>
<path d="M3693 6758 c-23 -26 -35 -64 -37 -120 -2 -75 -28 -28 -30 56 -1 56
-20 72 -30 25 -11 -54 -7 -96 9 -103 8 -3 15 -11 15 -17 0 -8 -4 -8 -15 1 -13
10 -15 9 -15 -9 0 -11 -5 -21 -11 -21 -5 0 -7 -4 -4 -10 3 -5 13 -10 21 -10
20 0 44 -24 44 -43 0 -9 6 -18 13 -20 9 -4 9 -7 0 -14 -15 -11 -16 -152 -1
-170 7 -9 7 -13 -1 -13 -8 0 -10 -8 -6 -20 4 -14 2 -20 -9 -20 -8 0 -20 -8
-25 -17 -10 -17 -10 -17 -11 0 0 9 5 17 11 17 8 0 8 4 -1 14 -6 8 -18 12 -26
9 -16 -6 -19 8 -4 23 8 8 6 15 -5 24 -9 7 -15 9 -14 4 1 -5 1 -18 0 -29 -4
-36 -30 68 -37 145 -4 41 -9 69 -11 63 -3 -7 -12 -13 -20 -13 -9 0 -13 -6 -10
-15 4 -8 2 -17 -3 -20 -5 -3 -8 -36 -7 -73 2 -62 -10 -101 -27 -85 -3 4 -6 0
-6 -8 1 -19 28 -54 36 -46 4 4 14 -2 21 -13 8 -11 19 -17 25 -14 7 5 9 1 5 -9
-6 -16 28 -45 40 -33 3 3 12 -2 20 -10 9 -9 23 -12 35 -8 19 6 20 3 14 -123
-4 -70 -9 -138 -13 -151 -3 -12 1 -30 8 -39 8 -9 9 -14 3 -10 -8 4 -16 -10
-23 -39 -16 -62 -9 -80 32 -81 17 -1 43 -2 57 -3 14 -1 44 1 67 5 38 7 41 10
32 27 -5 10 -9 72 -8 137 1 66 -2 124 -5 130 -4 6 -2 11 3 11 6 0 11 -4 11
-10 0 -5 7 -10 15 -10 8 0 15 7 15 16 0 13 3 14 14 5 10 -8 16 -8 25 3 7 8 8
17 3 20 -5 3 -8 18 -5 33 2 16 1 61 -3 101 -4 52 -10 72 -20 72 -8 0 -14 -3
-15 -7 -7 -50 -6 -84 2 -88 5 -4 9 -11 9 -16 0 -6 -4 -8 -9 -5 -5 3 -15 -8
-24 -26 -15 -30 -15 -29 -11 38 9 133 13 152 42 173 21 16 24 22 13 30 -11 7
-10 11 8 20 11 7 21 18 21 26 0 15 1 16 35 20 39 4 64 23 58 45 -3 11 -10 17
-15 14 -5 -3 -4 3 3 13 7 13 9 34 5 57 -9 45 -28 37 -23 -10 3 -19 0 -34 -4
-34 -5 0 -9 -8 -10 -17 0 -16 -1 -16 -8 1 -7 18 -8 18 -14 2 -4 -10 -7 -26 -7
-37 0 -10 -9 -28 -20 -39 -24 -24 -24 -23 -4 25 9 23 13 48 8 67 -4 21 -3 28
5 24 7 -5 11 1 11 14 0 12 5 18 10 15 16 -10 11 58 -6 80 -15 19 -16 18 -12
-14 4 -29 3 -32 -8 -17 -15 21 -28 5 -19 -24 4 -11 2 -20 -4 -20 -13 0 -14
-40 -2 -59 7 -10 4 -23 -8 -40 -10 -15 -16 -32 -14 -38 3 -7 0 -13 -6 -13 -17
0 -24 46 -17 112 4 36 4 58 -2 54 -5 -3 -12 -34 -14 -69 -3 -35 -12 -75 -21
-88 -8 -13 -18 -48 -22 -77 -8 -61 -17 -62 -20 -3 -1 26 2 38 8 34 7 -4 7 0 2
13 -9 20 -12 85 -14 277 -1 64 -5 117 -9 117 -5 0 -18 -10 -29 -22z m-48 -178
c3 -5 1 -10 -4 -10 -6 0 -11 5 -11 10 0 6 2 10 4 10 3 0 8 -4 11 -10z m52 -12
c-3 -8 -6 -5 -6 6 -1 11 2 17 5 13 3 -3 4 -12 1 -19z m0 -200 c-3 -8 -6 -5 -6
6 -1 11 2 17 5 13 3 -3 4 -12 1 -19z m-182 -18 c3 -5 1 -10 -4 -10 -6 0 -11 5
-11 10 0 6 2 10 4 10 3 0 8 -4 11 -10z m305 -10 c0 -5 -2 -10 -4 -10 -3 0 -8
5 -11 10 -3 6 -1 10 4 10 6 0 11 -4 11 -10z m-120 -45 c7 -9 8 -15 2 -15 -5 0
-12 7 -16 15 -3 8 -4 15 -2 15 2 0 9 -7 16 -15z m84 -28 c-2 -7 -5 -45 -7 -85
-2 -43 -9 -77 -16 -85 -11 -10 -12 -1 -7 52 3 35 6 84 6 109 0 38 2 43 14 32
8 -6 13 -17 10 -23z m-208 -54 c-11 -11 -17 4 -9 23 7 18 8 18 11 1 2 -10 1
-21 -2 -24z m79 17 c3 -5 1 -10 -4 -10 -6 0 -11 5 -11 10 0 6 2 10 4 10 3 0 8
-4 11 -10z m95 -5 c0 -8 -4 -15 -10 -15 -5 0 -10 7 -10 15 0 8 5 15 10 15 6 0
10 -7 10 -15z m-35 -55 c3 -5 1 -10 -4 -10 -6 0 -11 5 -11 10 0 6 2 10 4 10 3
0 8 -4 11 -10z m140 -79 c-3 -6 -11 -11 -17 -11 -6 0 -6 6 2 15 14 17 26 13
15 -4z m-150 -1 c3 -5 2 -10 -4 -10 -5 0 -13 5 -16 10 -3 6 -2 10 4 10 5 0 13
-4 16 -10z m110 -39 c-3 -6 -11 -11 -17 -11 -6 0 -6 6 2 15 14 17 26 13 15 -4z
m-78 -33 c-3 -7 -5 -2 -5 12 0 14 2 19 5 13 2 -7 2 -19 0 -25z m-72 12 c3 -5
1 -10 -4 -10 -6 0 -11 5 -11 10 0 6 2 10 4 10 3 0 8 -4 11 -10z m108 -157 c4
-116 3 -123 -15 -123 -11 0 -16 5 -13 10 3 6 2 10 -3 10 -5 0 -9 30 -9 66 0
41 3 61 8 53 6 -10 9 -5 9 16 0 21 -3 26 -9 16 -7 -10 -10 -11 -16 -1 -5 8 -1
18 8 25 10 7 17 26 17 46 1 24 3 30 9 19 5 -8 11 -70 14 -137z m-33 107 c0
-11 -4 -20 -9 -20 -5 0 -7 9 -4 20 3 11 7 20 9 20 2 0 4 -9 4 -20z m-40 -21
c0 -5 -4 -9 -10 -9 -5 0 -10 7 -10 16 0 8 5 12 10 9 6 -3 10 -10 10 -16z m-34
-26 c-7 -7 -26 7 -26 19 0 6 6 6 15 -2 9 -7 13 -15 11 -17z m29 -103 c3 -5 1
-10 -4 -10 -6 0 -11 5 -11 10 0 6 2 10 4 10 3 0 8 -4 11 -10z"/>
<path d="M3791 6725 c1 -19 18 -51 18 -35 0 8 -4 22 -9 30 -5 8 -9 11 -9 5z"/>
<path d="M8502 6695 c0 -16 2 -22 5 -12 2 9 2 23 0 30 -3 6 -5 -1 -5 -18z"/>
<path d="M3762 6685 c0 -16 3 -39 8 -50 l9 -20 -1 20 c0 11 -4 34 -8 50 l-8
30 0 -30z"/>
<path d="M3800 6625 c0 -19 5 -35 10 -35 6 0 10 16 10 35 0 19 -4 35 -10 35
-5 0 -10 -16 -10 -35z"/>
<path d="M8292 6610 c0 -14 2 -19 5 -12 2 6 2 18 0 25 -3 6 -5 1 -5 -13z"/>
<path d="M3768 6587 c-3 -19 -2 -25 4 -19 6 6 8 18 6 28 -3 14 -5 12 -10 -9z"/>
<path d="M8326 6585 c-3 -8 -1 -15 4 -15 6 0 10 7 10 15 0 8 -2 15 -4 15 -2 0
-6 -7 -10 -15z"/>
<path d="M8185 6520 c3 -5 8 -10 11 -10 2 0 4 5 4 10 0 6 -5 10 -11 10 -5 0
-7 -4 -4 -10z"/>
<path d="M8291 6444 c0 -11 3 -14 6 -6 3 7 2 16 -1 19 -3 4 -6 -2 -5 -13z"/>
<path d="M3885 6370 c-10 -11 -14 -20 -8 -20 5 0 18 9 28 20 10 11 14 20 8 20
-5 0 -18 -9 -28 -20z"/>
<path d="M3536 6112 c-3 -3 -6 -15 -6 -28 0 -17 -5 -21 -19 -17 -12 3 -20 -2
-24 -16 -7 -27 -1 -31 50 -31 l43 0 0 44 c0 35 -4 45 -19 49 -11 3 -22 2 -25
-1z"/>
<path d="M8270 6033 c0 -24 5 -43 10 -43 13 0 13 50 0 70 -7 11 -10 4 -10 -27z"/>
<path d="M283 5980 l6 -45 -19 25 c-21 28 -26 21 -9 -13 6 -13 -2 -8 -21 13
l-31 35 15 -32 c23 -46 20 -48 -22 -14 -46 36 -56 14 -10 -24 33 -28 34 -32
11 -38 -10 -3 -4 -5 12 -4 17 0 40 -3 53 -7 12 -4 22 -3 22 2 0 5 11 7 25 4
14 -2 25 0 25 7 0 6 16 17 35 25 19 8 35 18 35 21 0 3 -9 1 -19 -5 -38 -20
-44 -10 -15 22 28 30 17 30 -19 -1 -17 -15 -18 -14 -12 14 l6 30 -17 -30 -17
-30 -14 39 c-19 56 -27 58 -20 6z"/>
<path d="M2743 5801 c-10 -17 -24 -31 -32 -31 -8 0 -12 -3 -8 -6 11 -11 97 28
97 44 0 8 -3 12 -7 9 -3 -4 -12 -2 -19 4 -11 9 -18 4 -31 -20z"/>
<path d="M2562 5690 c-11 -18 -10 -20 17 -20 36 0 61 9 61 22 0 5 -4 7 -9 3
-5 -3 -12 -1 -16 5 -10 17 -39 11 -53 -10z"/>
<path d="M9110 5696 c0 -21 17 -29 46 -22 22 6 23 8 10 21 -19 19 -56 19 -56
1z"/>
<path d="M8694 5584 c-18 -14 -18 -15 4 -4 12 6 22 13 22 15 0 8 -5 6 -26 -11z"/>
<path d="M3238 5583 c7 -3 16 -2 19 1 4 3 -2 6 -13 5 -11 0 -14 -3 -6 -6z"/>
<path d="M4613 5563 c-9 -15 -22 -31 -28 -35 -21 -16 9 -7 51 14 41 20 57 38
35 38 -5 0 -16 3 -24 6 -10 3 -22 -5 -34 -23z"/>
<path d="M3270 5569 c0 -5 5 -7 10 -4 6 3 10 8 10 11 0 2 -4 4 -10 4 -5 0 -10
-5 -10 -11z"/>
<path d="M3520 5566 c0 -3 9 -10 20 -16 11 -6 20 -8 20 -6 0 3 -9 10 -20 16
-11 6 -20 8 -20 6z"/>
<path d="M3523 5525 c0 -8 4 -12 9 -9 5 3 6 10 3 15 -9 13 -12 11 -12 -6z"/>
<path d="M3200 5496 c7 -7 13 -7 20 0 6 6 3 10 -10 10 -13 0 -16 -4 -10 -10z"/>
<path d="M3603 5503 c9 -2 23 -2 30 0 6 3 -1 5 -18 5 -16 0 -22 -2 -12 -5z"/>
<path d="M3342 5454 c-7 -8 -8 -14 -3 -14 10 0 25 19 20 25 -2 1 -10 -3 -17
-11z"/>
<path d="M8660 5466 c0 -2 8 -10 18 -17 15 -13 16 -12 3 4 -13 16 -21 21 -21
13z"/>
<path d="M3537 5409 c7 -7 15 -10 18 -7 3 3 -2 9 -12 12 -14 6 -15 5 -6 -5z"/>
<path d="M3146 5395 c-11 -8 -16 -15 -10 -15 5 0 18 7 28 15 11 8 16 15 10 15
-5 0 -18 -7 -28 -15z"/>
<path d="M8935 5390 c3 -5 8 -10 11 -10 2 0 4 5 4 10 0 6 -5 10 -11 10 -5 0
-7 -4 -4 -10z"/>
<path d="M9475 5113 l7 -48 -22 25 -21 25 12 -25 12 -25 -28 25 c-28 25 -28
25 -16 2 20 -38 4 -38 -37 -1 -20 19 -32 28 -25 20 6 -7 9 -19 6 -26 -2 -8 8
-21 22 -31 23 -15 25 -19 12 -29 -11 -8 2 -10 54 -9 37 0 66 -3 63 -8 -3 -4 2
-5 10 -2 9 3 13 10 11 15 -3 4 17 20 45 34 27 14 50 28 50 30 0 3 -18 -4 -40
-15 -53 -27 -59 -25 -25 10 30 31 25 42 -7 13 -17 -15 -18 -15 -18 8 -1 23 -1
23 -17 -6 l-16 -30 -14 48 c-18 60 -27 60 -18 0z"/>
<path d="M8949 5103 c16 -32 15 -33 -31 -34 -32 -1 -20 -5 45 -15 48 -7 92
-16 97 -19 5 -3 7 0 5 7 -3 8 -18 15 -32 16 -15 1 -43 17 -61 35 -26 24 -32
26 -23 10z"/>
<path d="M9087 5002 c1 -8 3 -16 3 -18 0 -3 5 -2 10 1 6 3 10 11 10 16 0 6 -4
8 -9 5 -5 -4 -11 -3 -14 1 -2 5 -2 2 0 -5z"/>
<path d="M1269 4979 c0 -2 -3 -13 -5 -24 -3 -11 -6 -57 -7 -102 -1 -46 -6 -83
-11 -83 -5 0 -3 -7 4 -15 7 -8 17 -12 22 -9 6 4 13 2 17 -3 9 -15 44 -24 58
-15 23 14 21 102 -2 102 -8 0 -15 -6 -15 -12 -1 -7 -8 -1 -16 15 -8 15 -20 27
-26 27 -7 0 -7 4 -1 13 15 19 13 85 -3 98 -8 6 -14 10 -15 8z m15 -164 c3 -8
1 -15 -3 -15 -5 0 -11 7 -15 15 -3 8 -1 15 3 15 5 0 11 -7 15 -15z m46 -40 c0
-12 -19 -12 -23 0 -4 9 -1 12 9 8 7 -3 14 -7 14 -8z"/>
<path d="M9100 4964 c0 -1 18 -46 39 -100 l39 -99 71 -6 c39 -4 90 -16 114
-28 30 -15 59 -20 93 -19 46 3 50 1 64 -29 8 -18 18 -33 22 -33 13 0 19 40 8
57 -8 15 -9 13 -5 -12 4 -27 3 -27 -8 5 -13 37 -18 39 -81 26 -31 -6 -42 -4
-60 13 -16 15 -41 22 -96 27 -41 4 -80 11 -86 15 -6 5 -14 6 -17 3 -4 -4 -12
14 -19 40 -7 25 -16 46 -21 46 -5 0 -6 7 -3 16 3 8 2 12 -4 9 -6 -3 -11 0 -11
7 -2 12 -3 20 -8 54 -1 8 -31 17 -31 8z"/>
<path d="M1454 4938 c-4 -13 -8 -118 -9 -234 -2 -117 -5 -216 -7 -220 -3 -5
-4 -39 -3 -76 2 -38 -1 -68 -6 -68 -5 0 -9 -13 -9 -29 0 -42 -18 -48 -23 -9
-3 25 -4 21 -5 -15 -2 -34 -6 -47 -14 -45 -10 4 -14 55 -18 194 l-6 189 -2
-187 c-2 -162 -4 -187 -17 -182 -10 4 -15 0 -15 -11 0 -9 -4 -13 -10 -10 -5 3
-10 1 -10 -6 0 -7 -3 -9 -7 -5 -4 4 -6 25 -4 46 2 33 0 39 -13 34 -9 -3 -16
-1 -16 5 0 7 6 14 13 17 8 3 11 17 9 40 -3 26 -8 34 -19 30 -8 -3 -19 -6 -25
-6 -7 0 -9 -25 -5 -75 3 -45 2 -73 -4 -70 -13 9 -11 -2 6 -35 15 -29 15 -30
-5 -30 -18 0 -19 -3 -10 -21 9 -16 14 -18 26 -8 8 6 18 8 22 4 4 -4 1 -10 -5
-12 -19 -7 -16 -20 7 -26 13 -3 20 0 20 9 0 8 8 14 18 14 15 0 15 -2 2 -10
-13 -9 -13 -12 3 -21 12 -7 17 -23 17 -54 0 -34 4 -45 15 -45 9 0 20 -10 25
-22 8 -20 9 -21 9 -4 1 11 4 16 9 12 4 -4 7 -93 7 -197 0 -154 -3 -190 -14
-194 -18 -7 -33 14 -27 37 2 10 0 21 -5 24 -5 3 -9 -13 -9 -35 0 -30 4 -41 15
-41 17 0 39 -46 31 -64 -2 -6 -5 -3 -5 6 -1 11 -6 15 -16 12 -8 -4 -15 -1 -15
5 0 6 -4 11 -10 11 -5 0 -10 -13 -10 -30 0 -16 5 -30 10 -30 6 0 10 7 10 16 0
8 5 12 11 9 6 -4 8 -13 5 -20 -3 -8 -2 -16 2 -18 4 -2 1 -2 -5 -1 -7 2 -13 -1
-13 -6 0 -6 -6 -10 -14 -10 -8 0 -16 -6 -19 -14 -4 -10 10 -13 61 -14 37 0 74
-2 82 -3 8 -1 36 -1 63 -1 l47 2 0 36 c0 32 -2 35 -15 24 -9 -7 -18 -10 -22
-6 -4 3 3 14 16 22 22 16 23 20 16 105 l-7 89 26 10 c14 5 26 17 26 26 0 11 5
14 16 10 22 -9 67 21 60 40 -3 8 1 14 9 14 8 0 22 16 30 36 18 45 18 44 0 44
-22 0 -18 17 5 23 15 4 20 14 20 40 0 20 -6 38 -12 41 -10 5 -10 7 0 12 6 3
12 11 12 18 0 7 9 21 20 31 22 20 28 44 6 26 -12 -10 -13 -6 -9 27 3 24 1 42
-6 46 -6 4 -11 2 -11 -3 0 -19 -18 -12 -25 9 -12 38 -22 20 -23 -42 -4 -134
-23 -238 -43 -238 -5 0 -9 8 -10 18 0 13 -3 12 -11 -5 -6 -13 -16 -23 -22 -23
-6 0 -21 -3 -33 -6 -22 -6 -23 -3 -23 46 0 51 -1 52 -25 46 -14 -4 -25 -2 -25
4 0 5 11 10 25 10 25 0 26 2 23 58 -3 54 -4 57 -28 54 l-25 -2 23 16 c18 13
22 26 22 66 0 40 -3 49 -15 44 -8 -3 -15 -1 -15 5 0 5 7 12 15 15 11 5 15 23
15 76 0 58 -3 69 -15 64 -8 -3 -15 -1 -15 4 0 6 7 10 15 10 9 0 15 9 15 24 0
22 3 24 39 19 44 -6 93 13 70 28 -11 7 -9 10 8 15 16 4 27 19 35 45 6 22 16
40 22 41 6 0 16 2 21 3 6 2 16 3 23 4 9 1 11 8 7 21 -3 11 -2 20 3 20 5 0 9 6
10 13 0 6 6 45 13 85 6 40 9 76 6 79 -10 10 -38 -19 -33 -33 3 -7 0 -16 -5
-20 -6 -3 -9 -17 -6 -30 2 -14 -2 -25 -11 -29 -12 -4 -14 2 -9 39 4 28 2 48
-4 52 -8 4 -7 9 2 14 10 7 9 18 -3 56 -20 62 -38 69 -38 14 0 -36 3 -41 18
-36 13 5 12 2 -4 -12 -12 -10 -24 -31 -27 -47 -20 -100 -44 -186 -54 -196 -6
-6 -19 -9 -27 -6 -18 7 -22 43 -5 49 8 3 9 12 3 28 -8 25 -8 25 -14 -5 -3 -21
-12 -31 -26 -33 -20 -3 -22 4 -33 115 -16 174 -22 204 -37 210 -8 3 -14 16
-14 29 0 30 -16 31 -26 2z m19 -156 c-3 -12 -9 -22 -14 -22 -12 0 -11 7 2 32
13 25 20 19 12 -10z m237 -87 c-7 -9 -15 -13 -17 -11 -7 7 7 26 19 26 6 0 6
-6 -2 -15z m-239 -58 c-8 -8 -11 -5 -11 9 0 27 14 41 18 19 2 -9 -1 -22 -7
-28z m309 -6 c0 -12 -20 -25 -27 -18 -7 7 6 27 18 27 5 0 9 -4 9 -9z m-45 -31
c-3 -5 -14 -10 -23 -10 -15 0 -15 2 -2 10 20 13 33 13 25 0z m-35 -40 c0 -5
-2 -10 -4 -10 -3 0 -8 5 -11 10 -3 6 -1 10 4 10 6 0 11 -4 11 -10z m-153 -57
c-9 -9 -19 -14 -23 -11 -10 10 6 28 24 28 15 0 15 -1 -1 -17z m-66 -26 c-8 -8
-11 -7 -11 4 0 20 13 34 18 19 3 -7 -1 -17 -7 -23z m-7 -141 c-3 -9 -10 -16
-15 -16 -6 0 -5 9 1 21 13 24 24 20 14 -5z m0 -118 c-9 -30 -10 -31 -24 -23
-8 5 -6 13 6 26 22 25 27 24 18 -3z m-118 -39 c3 -5 2 -14 -1 -20 -7 -10 -45
16 -45 32 0 9 39 -1 46 -12z m44 -69 c9 -16 8 -20 -5 -20 -8 0 -15 9 -15 20 0
11 2 20 5 20 2 0 9 -9 15 -20z m55 -89 c-3 -12 -13 -21 -21 -21 -12 0 -12 4 2
25 19 29 29 27 19 -4z m15 -113 c0 -19 -18 -43 -25 -36 -4 3 -2 16 5 27 12 24
20 27 20 9z m120 -98 c0 -20 -5 -30 -15 -30 -18 0 -18 1 -5 34 13 34 20 33 20
-4z m-63 -7 c-9 -9 -20 -13 -24 -9 -4 4 1 14 11 22 25 18 35 8 13 -13z m-53
-107 c-6 -16 -24 -23 -24 -8 0 10 22 33 27 28 2 -2 1 -11 -3 -20z m61 -26
c-10 -11 -23 -20 -28 -20 -6 0 -2 9 8 20 10 11 23 20 28 20 6 0 2 -9 -8 -20z
m-68 -77 c-9 -9 -20 -13 -24 -9 -4 4 -1 11 7 16 25 16 35 11 17 -7z m-70 -25
c-3 -7 -5 -2 -5 12 0 14 2 19 5 13 2 -7 2 -19 0 -25z m73 -60 c0 -19 -18 -44
-25 -36 -4 3 0 15 7 27 15 24 18 26 18 9z"/>
<path d="M10075 4930 c-33 -17 -107 -52 -165 -79 -111 -51 -157 -84 -152 -107
2 -9 -3 -12 -13 -8 -11 5 -14 2 -9 -10 7 -19 0 -20 -28 -5 -20 11 -70 5 -66
-9 4 -12 -23 -53 -31 -48 -4 3 -18 -4 -30 -15 -12 -11 -25 -18 -29 -15 -5 3
-7 -13 -6 -35 4 -73 -1 -78 -64 -74 -36 2 -48 1 -32 -4 24 -7 24 -8 -10 -15
-19 -4 -47 -8 -62 -9 -14 -1 -24 -5 -22 -8 2 -4 -13 -14 -34 -22 -21 -8 -44
-22 -51 -31 -9 -11 -18 -13 -25 -7 -28 23 -13 -41 20 -91 61 -91 61 -84 7
-138 -26 -26 -75 -76 -108 -110 l-60 -62 90 72 c50 39 106 81 126 92 l37 20
-38 82 c-57 125 -57 122 -13 145 55 28 167 60 244 70 4 1 9 13 12 29 4 15 30
60 58 100 l52 74 43 -7 c36 -5 43 -3 49 14 9 31 59 63 225 146 l153 77 46 -21
c58 -26 107 -37 195 -46 38 -4 91 -13 117 -21 49 -15 49 -15 73 13 29 33 15
44 -17 14 -22 -20 -67 -20 -67 1 0 5 -3 7 -8 4 -15 -9 -242 25 -283 43 -32 15
-37 20 -23 24 12 3 8 5 -11 6 -16 0 -57 -13 -90 -29z m-465 -279 c0 -5 -7 -12
-16 -15 -14 -5 -15 -4 -4 9 14 17 20 19 20 6z"/>
<path d="M1400 4879 c0 -41 -2 -126 -4 -189 l-5 -115 9 90 c11 116 14 274 6
282 -3 4 -6 -27 -6 -68z"/>
<path d="M10230 4930 c8 -5 24 -10 34 -10 26 0 18 6 -19 14 -22 5 -26 4 -15
-4z"/>
<path d="M10313 4913 c9 -2 25 -2 35 0 9 3 1 5 -18 5 -19 0 -27 -2 -17 -5z"/>
<path d="M1220 4805 c0 -8 4 -15 10 -15 5 0 7 7 4 15 -4 8 -8 15 -10 15 -2 0
-4 -7 -4 -15z"/>
<path d="M1600 4681 c0 -16 5 -33 10 -36 6 -4 10 6 10 24 0 16 -4 33 -10 36
-6 4 -10 -6 -10 -24z"/>
<path d="M10115 4688 c5 -21 5 -21 -8 -6 -16 20 -57 14 -57 -8 0 -23 77 -18
90 5 14 27 13 31 -11 31 -16 0 -19 -4 -14 -22z"/>
<path d="M5500 4662 c-8 -3 -21 -11 -28 -19 -11 -11 -7 -13 27 -13 22 0 43 5
47 12 4 6 3 8 -4 4 -6 -3 -14 0 -19 7 -4 8 -15 12 -23 9z"/>
<path d="M5748 4614 c-16 -26 -22 -44 -15 -44 12 0 54 77 46 84 -2 2 -16 -16
-31 -40z"/>
<path d="M1393 4500 c0 -36 2 -50 4 -32 2 17 2 47 0 65 -2 17 -4 3 -4 -33z"/>
<path d="M5700 4548 c0 -5 51 -7 113 -7 122 2 112 7 -26 11 -48 2 -87 0 -87
-4z"/>
<path d="M9380 4510 c-13 -8 -13 -10 2 -10 9 0 20 5 23 10 8 13 -5 13 -25 0z"/>
<path d="M1215 4460 c3 -5 11 -10 16 -10 6 0 7 5 4 10 -3 6 -11 10 -16 10 -6
0 -7 -4 -4 -10z"/>
<path d="M1119 4443 c0 -10 -2 -30 -4 -45 -2 -16 1 -28 6 -28 5 0 9 -5 9 -11
0 -5 -4 -7 -10 -4 -5 3 -10 -3 -10 -13 0 -18 24 -37 43 -34 4 1 7 -4 7 -12 0
-7 7 -19 15 -26 16 -13 16 -13 -1 85 -4 22 -6 44 -5 48 1 5 -3 6 -8 3 -5 -3
-7 -16 -4 -29 4 -21 4 -21 -8 -2 -7 11 -12 32 -10 47 1 14 -2 29 -8 33 -6 3
-11 -2 -12 -12z"/>
<path d="M4933 4440 c14 -11 28 -20 32 -20 4 0 -4 9 -18 20 -14 11 -28 20 -32
20 -4 0 4 -9 18 -20z"/>
<path d="M1242 4430 c-16 -26 -15 -29 8 -23 22 6 24 11 12 30 -6 9 -11 7 -20
-7z"/>
<path d="M4066 4395 c-41 -38 -46 -40 -64 -25 -7 5 -6 2 3 -7 13 -15 17 -14
53 10 21 15 45 27 54 27 19 0 96 -54 125 -88 19 -23 24 -24 51 -13 23 10 35
10 52 1 l22 -12 -23 31 -22 30 -25 -20 -25 -20 -31 29 c-27 25 -122 92 -130
92 -2 0 -20 -16 -40 -35z"/>
<path d="M4980 4406 c0 -2 8 -10 18 -17 15 -13 16 -12 3 4 -13 16 -21 21 -21
13z"/>
<path d="M10212 4382 c5 -17 -7 -237 -18 -342 -2 -25 -5 -78 -5 -118 -1 -40
-4 -71 -7 -68 -3 3 -10 -2 -17 -11 -11 -15 -14 -13 -28 18 -26 58 -30 81 -28
159 3 104 -6 85 -13 -29 -7 -104 -14 -141 -27 -141 -12 0 -12 17 0 24 5 4 5
18 -2 35 -6 17 -14 28 -17 26 -4 -2 -5 26 -4 64 1 37 -2 74 -7 82 -6 10 -9 10
-9 2 0 -7 -5 -13 -11 -13 -7 0 -9 10 -5 25 7 28 -8 35 -18 8 -4 -9 -10 -51
-13 -93 -5 -71 -4 -78 25 -126 21 -37 27 -55 20 -65 -8 -11 -9 -10 -4 3 3 10
1 20 -4 23 -4 3 -10 0 -12 -6 -5 -14 -35 -1 -42 17 -3 8 -1 12 4 9 6 -3 7 1 4
9 -7 18 -13 19 -34 6 -10 -6 -21 -3 -37 12 -23 21 -29 15 -17 -16 3 -9 12 -16
20 -16 8 0 14 -7 14 -15 0 -8 9 -15 21 -15 11 0 17 -4 14 -10 -3 -6 4 -10 17
-10 13 0 30 -6 37 -12 10 -11 15 -9 28 7 15 19 15 19 9 -7 -5 -24 -3 -28 14
-28 11 0 20 5 20 10 0 6 3 10 8 10 4 0 7 -24 7 -52 0 -40 4 -53 16 -56 12 -2
15 4 11 28 -2 16 0 30 5 30 10 0 23 -166 23 -300 0 -44 4 -70 9 -62 5 8 9 -14
9 -55 2 -51 -1 -64 -9 -50 -5 9 -7 22 -3 29 4 6 3 8 -3 5 -15 -9 -23 16 -23
67 0 23 -6 48 -12 55 -10 11 -10 14 0 18 17 7 15 43 -5 65 -15 17 -15 18 0 18
14 0 17 10 17 51 0 49 -13 89 -29 89 -12 0 -13 -347 -1 -370 7 -13 7 -20 0
-20 -5 0 -16 16 -25 36 -8 19 -19 33 -25 29 -5 -3 -10 -2 -10 4 0 5 4 12 9 16
5 3 8 29 6 58 -4 68 -2 64 -24 70 -14 3 -19 -1 -19 -17 -1 -11 -3 -66 -4 -121
-2 -55 -7 -106 -12 -113 -12 -19 13 -44 37 -36 16 5 19 3 14 -10 -5 -11 -1
-16 13 -16 10 0 22 5 25 10 3 6 12 10 18 10 8 -1 7 -5 -3 -13 -11 -8 -16 -37
-19 -99 -3 -76 -1 -88 13 -88 9 0 17 6 17 13 1 6 2 19 3 27 1 8 -5 26 -12 39
-13 22 -13 23 2 18 11 -5 18 1 22 21 4 15 11 32 16 38 4 6 6 19 2 28 -4 11 -1
16 10 16 19 0 22 -36 4 -44 -10 -5 -10 -7 0 -12 10 -5 10 -9 0 -22 -10 -12
-10 -14 0 -8 6 4 12 2 12 -3 0 -6 -5 -11 -11 -11 -8 0 -7 -5 1 -15 10 -13 10
-19 -5 -35 -10 -11 -13 -20 -7 -20 7 0 12 -17 11 -42 0 -33 -2 -38 -9 -23 -7
17 -9 15 -9 -11 -1 -32 -15 -44 -52 -44 -16 0 -17 3 -7 24 6 14 7 33 4 43 -6
14 -12 5 -26 -37 -11 -30 -19 -56 -20 -57 0 -2 13 -3 29 -3 16 0 44 -6 62 -14
19 -7 57 -16 84 -19 28 -4 39 -3 25 2 l-25 7 32 11 c17 6 40 10 50 7 36 -9 43
7 32 75 -11 74 -19 551 -8 551 4 0 9 -5 11 -11 3 -8 15 -9 37 -4 22 5 31 11
27 21 -4 10 0 13 17 9 25 -6 81 33 59 42 -17 7 -5 23 13 16 8 -3 15 0 15 6 0
6 9 11 21 11 13 0 18 4 13 12 -5 8 -2 9 10 5 13 -5 19 -1 23 13 3 11 12 20 19
20 8 0 14 7 14 16 0 20 -27 47 -39 40 -14 -9 -23 25 -11 40 6 7 11 36 11 66
-1 29 -1 62 -1 73 2 52 -15 100 -31 90 -5 -4 -9 3 -9 14 0 12 -5 21 -10 21 -6
0 -8 -10 -4 -24 5 -22 -18 -145 -50 -261 -10 -37 -16 -45 -21 -32 -4 9 -5 24
-2 31 4 10 1 13 -9 9 -12 -4 -14 -14 -10 -37 5 -27 2 -33 -24 -45 -23 -10 -29
-18 -25 -32 4 -11 2 -19 -4 -19 -6 0 -11 7 -11 15 0 22 -28 18 -35 -5 -3 -11
-11 -20 -16 -20 -14 0 -11 17 6 34 8 8 15 29 15 46 0 24 -4 31 -15 26 -8 -3
-15 -1 -15 5 0 5 7 12 15 15 18 7 22 124 4 124 -8 0 -8 4 -1 13 5 6 13 33 17
60 6 39 5 47 -9 47 -20 0 -21 16 -1 24 8 3 15 12 15 20 0 8 9 18 20 21 11 4
17 11 14 17 -4 6 1 8 13 4 13 -4 26 1 38 14 15 17 15 20 3 20 -12 0 -14 9 -11
38 2 20 1 79 -3 130 -4 68 -9 92 -20 92 -22 0 -37 -37 -24 -60 7 -14 7 -20 0
-20 -5 0 -10 -11 -10 -25 0 -14 5 -25 10 -25 6 0 10 -5 10 -11 0 -5 -4 -8 -9
-5 -5 3 -14 -8 -20 -24 -16 -46 -26 -36 -27 27 -2 112 -14 152 -59 197 -23 22
-49 21 -43 -2z m49 -173 c-9 -22 -10 -22 -10 -3 -1 11 2 24 6 27 12 12 14 0 4
-24z m133 -83 c-6 -16 -24 -23 -24 -8 0 10 22 33 27 28 2 -2 1 -11 -3 -20z
m-133 -37 c-9 -22 -10 -22 -10 -3 -1 11 2 24 6 27 12 12 14 0 4 -24z m89 -4
c-7 -9 -15 -13 -17 -11 -7 7 7 26 19 26 6 0 6 -6 -2 -15z m-339 -126 c-9 -22
-10 -22 -10 -3 -1 11 2 24 6 27 12 12 14 0 4 -24z m250 -26 c-10 -17 -10 -16
-11 3 0 23 13 41 18 25 2 -6 -1 -18 -7 -28z m279 -63 c-20 -13 -33 -13 -25 0
3 6 14 10 23 10 15 0 15 -2 2 -10z m-365 -57 c-9 -8 -13 -18 -10 -21 3 -4 10
0 15 8 6 9 8 1 6 -23 -5 -65 -24 -65 -29 -1 -3 37 10 67 26 57 4 -2 0 -11 -8
-20z m78 -1 c-3 -12 -9 -19 -14 -16 -5 3 -4 14 2 25 13 26 20 21 12 -9z m262
-52 c-3 -5 -11 -10 -16 -10 -6 0 -7 5 -4 10 3 6 11 10 16 10 6 0 7 -4 4 -10z
m-335 -80 c0 -22 -4 -40 -8 -40 -5 0 -9 18 -10 40 -1 22 3 40 8 40 6 0 10 -18
10 -40z m66 3 c-5 -12 -10 -13 -18 -5 -8 8 -8 15 3 28 15 18 25 4 15 -23z
m234 -38 c-7 -9 -15 -13 -17 -11 -7 7 7 26 19 26 6 0 6 -6 -2 -15z m-300 -51
c0 -14 -4 -22 -10 -19 -5 3 -10 17 -10 31 0 14 4 22 10 19 6 -3 10 -17 10 -31z
m234 10 c4 -15 4 -29 1 -32 -8 -8 -25 19 -25 41 0 26 17 20 24 -9z m-184 -71
c0 -14 -19 -38 -25 -32 -8 8 5 39 16 39 5 0 9 -3 9 -7z m5 -132 c-7 -22 -25
-29 -25 -11 0 12 23 40 28 35 2 -2 1 -13 -3 -24z m49 -86 c-4 -8 -13 -15 -21
-15 -13 0 -13 3 -3 15 7 8 16 15 21 15 5 0 6 -7 3 -15z m-247 -20 c9 -25 -4
-29 -17 -6 -7 15 -7 21 0 21 6 0 13 -7 17 -15z m52 -61 c3 -16 1 -17 -13 -5
-19 16 -21 34 -3 29 6 -3 14 -13 16 -24z m78 -6 c-3 -8 -6 -5 -6 6 -1 11 2 17
5 13 3 -3 4 -12 1 -19z m66 -6 c-6 -24 -23 -30 -23 -9 0 13 21 39 26 34 2 -2
1 -13 -3 -25z m51 -37 c-4 -8 -12 -15 -20 -15 -17 0 -18 17 -1 23 22 9 27 7
21 -8z m-63 -168 c-16 -16 -26 0 -10 19 9 11 15 12 17 4 2 -6 -1 -17 -7 -23z
m83 18 c-6 -16 -24 -21 -24 -7 0 11 11 22 21 22 5 0 6 -7 3 -15z"/>
<path d="M1392 4365 c0 -16 2 -22 5 -12 2 9 2 23 0 30 -3 6 -5 -1 -5 -18z"/>
<path d="M10066 4378 c-2 -7 -7 -37 -10 -65 -4 -42 -2 -53 9 -53 8 0 15 -7 15
-16 0 -8 -4 -12 -10 -9 -5 3 -10 -1 -10 -9 0 -9 -5 -16 -11 -16 -8 0 -7 -5 1
-15 7 -9 19 -14 27 -11 8 3 11 1 8 -4 -3 -6 3 -10 14 -10 10 0 21 3 24 8 2 4
2 1 1 -5 -2 -7 1 -13 6 -13 6 0 10 -34 10 -77 0 -42 2 -74 4 -72 2 2 7 58 11
124 4 65 13 139 21 164 19 62 10 64 -11 2 -9 -28 -20 -49 -25 -46 -5 3 -11 -1
-14 -7 -5 -10 -7 -10 -12 0 -3 7 -12 19 -20 27 -12 11 -12 19 -4 35 6 11 7 20
2 20 -5 0 -7 11 -5 24 5 25 -14 47 -21 24z m50 -175 c-7 -7 -26 7 -26 19 0 6
6 6 15 -2 9 -7 13 -15 11 -17z"/>
<path d="M2184 4365 c3 -11 10 -47 16 -80 6 -33 14 -69 17 -80 3 -11 -11 2
-31 30 -38 52 -46 54 -21 5 22 -42 8 -37 -49 18 -48 46 -46 42 16 -42 12 -16
17 -27 12 -25 -48 21 -124 66 -146 87 -16 14 -28 21 -28 15 0 -6 29 -38 65
-72 68 -63 62 -65 -34 -16 -57 28 -76 32 -46 9 50 -39 130 -65 203 -67 41 -1
76 1 78 5 3 5 14 8 25 8 16 0 18 3 9 19 -5 11 -10 33 -10 50 0 16 -5 33 -10
36 -6 4 -24 32 -40 63 -17 31 -28 48 -26 37z"/>
<path d="M4655 4370 c-11 -5 -89 -6 -174 -3 -116 5 -152 3 -147 -5 5 -8 60
-12 180 -12 l173 0 41 -62 c22 -35 60 -81 83 -103 24 -22 37 -31 29 -20 -8 11
-18 22 -21 25 -15 13 -99 161 -99 175 0 17 -32 19 -65 5z"/>
<path d="M5020 4376 c0 -2 8 -10 18 -17 15 -13 16 -12 3 4 -13 16 -21 21 -21
13z"/>
<path d="M1201 4344 c0 -11 3 -14 6 -6 3 7 2 16 -1 19 -3 4 -6 -2 -5 -13z"/>
<path d="M5277 4315 c-10 -22 -17 -48 -17 -57 0 -9 -4 -20 -10 -23 -5 -3 -10
-11 -10 -17 0 -19 38 37 56 82 l17 43 196 -5 c176 -4 190 -3 136 8 -36 8 -119
12 -206 11 l-146 -2 -16 -40z"/>
<path d="M5100 4314 c-30 -19 -50 -34 -46 -34 14 0 106 54 106 63 0 9 5 11
-60 -29z"/>
<path d="M10432 4324 c10 -10 20 -16 22 -13 3 3 -5 11 -17 18 -21 13 -21 12
-5 -5z"/>
<path d="M865 4309 c-16 -10 -55 -27 -85 -36 -51 -16 -69 -28 -70 -45 0 -18
118 38 179 84 31 24 14 22 -24 -3z"/>
<path d="M2335 4247 c-42 -38 -57 -58 -52 -70 10 -26 41 -20 65 13 25 33 28
45 10 34 -7 -5 0 9 16 30 15 20 26 39 24 42 -3 2 -31 -20 -63 -49z"/>
<path d="M5026 4240 c6 -6 49 -13 95 -15 74 -3 77 -2 29 5 -30 5 -73 11 -95
15 -29 4 -37 3 -29 -5z"/>
<path d="M1184 4224 c3 -9 6 -18 6 -20 0 -2 4 -4 9 -4 5 0 7 9 4 20 -3 11 -10
20 -15 20 -6 0 -7 -7 -4 -16z"/>
<path d="M4377 4220 c-27 -5 -52 -11 -55 -14 -9 -10 51 -5 103 9 56 14 26 17
-48 5z"/>
<path d="M5210 4219 c0 -5 5 -7 10 -4 6 3 10 8 10 11 0 2 -4 4 -10 4 -5 0 -10
-5 -10 -11z"/>
<path d="M10462 4200 c0 -14 2 -19 5 -12 2 6 2 18 0 25 -3 6 -5 1 -5 -13z"/>
<path d="M2913 4173 c9 -2 25 -2 35 0 9 3 1 5 -18 5 -19 0 -27 -2 -17 -5z"/>
<path d="M2511 4143 c-18 -20 -4 -31 15 -11 9 9 12 18 7 21 -4 3 -14 -2 -22
-10z"/>
<path d="M4875 4139 c4 -11 26 -14 91 -12 97 2 129 13 38 13 -32 0 -76 3 -97
6 -29 5 -36 4 -32 -7z"/>
<path d="M1185 4111 c6 -21 9 -35 20 -101 4 -25 14 -57 21 -72 10 -18 11 -28
4 -28 -6 0 -8 -5 -5 -10 4 -6 12 -8 18 -4 7 3 4 -1 -6 -9 -16 -13 -16 -16 -1
-28 13 -10 19 -10 36 0 18 11 20 11 15 -3 -5 -13 -1 -16 21 -14 27 2 28 5 29
52 1 28 2 58 4 66 2 8 -3 15 -11 15 -8 0 -14 -6 -12 -12 3 -20 -8 -15 -30 13
-11 14 -26 23 -33 20 -10 -4 -12 4 -8 30 4 23 2 34 -6 34 -8 0 -10 8 -6 20 8
25 -10 50 -37 50 -15 0 -18 -5 -13 -19z m75 -178 c0 -13 -3 -13 -15 -3 -8 7
-15 16 -15 21 0 5 7 6 15 3 8 -4 15 -13 15 -21z m55 -24 c11 -17 0 -20 -21 -4
-17 13 -17 14 -2 15 9 0 20 -5 23 -11z"/>
<path d="M1673 4095 c0 -22 2 -30 4 -17 2 12 2 30 0 40 -3 9 -5 -1 -4 -23z"/>
<path d="M10437 4111 c-4 -17 -3 -21 5 -13 5 5 8 16 6 23 -3 8 -7 3 -11 -10z"/>
<path d="M2296 4075 c-4 -12 3 -15 29 -15 36 0 47 13 19 24 -26 10 -42 7 -48
-9z"/>
<path d="M2568 4055 c3 -20 7 -23 18 -14 20 16 17 39 -5 39 -14 0 -17 -6 -13
-25z"/>
<path d="M2518 4056 c-26 -19 -22 -26 13 -26 23 0 30 4 27 17 -4 22 -19 25
-40 9z"/>
<path d="M4821 4050 c9 -5 36 -12 60 -15 l44 -5 -50 14 c-58 17 -77 19 -54 6z"/>
<path d="M17 4019 c-10 -6 -17 -22 -17 -39 l0 -30 34 17 c28 13 33 20 27 36
-10 26 -21 30 -44 16z"/>
<path d="M1662 4014 c-1 -12 -4 -37 -7 -55 -5 -31 -5 -32 5 -9 6 13 9 38 7 55
-2 18 -4 21 -5 9z"/>
<path d="M1150 3986 c0 -8 4 -17 9 -20 5 -4 7 3 4 14 -6 23 -13 26 -13 6z"/>
<path d="M739 3970 c-13 -8 -112 -36 -190 -54 -21 -5 -25 -10 -21 -34 2 -15
-1 -51 -6 -80 -5 -29 -6 -52 -2 -52 4 0 11 28 16 61 l9 62 113 45 c61 26 112
50 112 54 0 10 -11 10 -31 -2z"/>
<path d="M10461 3923 c-16 -58 -12 -75 5 -19 9 26 13 50 10 53 -2 3 -9 -12
-15 -34z"/>
<path d="M1187 3910 c10 -11 19 -20 21 -20 1 0 -2 9 -8 20 -6 11 -15 20 -20
20 -6 0 -2 -9 7 -20z"/>
<path d="M9917 3906 c-7 -19 4 -27 21 -17 10 6 10 10 -1 20 -12 9 -16 8 -20
-3z"/>
<path d="M9990 3871 c0 -5 5 -13 10 -16 6 -3 10 -2 10 4 0 5 -4 13 -10 16 -5
3 -10 2 -10 -4z"/>
<path d="M801 3824 c0 -11 3 -14 6 -6 3 7 2 16 -1 19 -3 4 -6 -2 -5 -13z"/>
<path d="M695 3803 c-33 -14 -64 -29 -70 -33 -31 -26 -128 -71 -141 -66 -8 3
-13 2 -10 -2 5 -9 -56 -42 -77 -42 -16 0 -72 -58 -81 -85 -4 -12 6 -5 23 16
19 23 51 45 88 59 32 13 95 43 140 67 44 24 109 54 144 66 34 12 64 28 67 35
5 17 -15 14 -83 -15z"/>
<path d="M10442 3810 c0 -14 2 -19 5 -12 2 6 2 18 0 25 -3 6 -5 1 -5 -13z"/>
<path d="M1343 3735 c0 -22 2 -30 4 -17 2 12 2 30 0 40 -3 9 -5 -1 -4 -23z"/>
<path d="M783 3595 l2 -40 180 2 c99 1 198 6 220 12 30 8 -13 9 -165 6 -113
-3 -210 -2 -216 2 -7 5 -14 19 -17 33 -3 14 -4 8 -4 -15z"/>
<path d="M3320 3480 c-17 -17 -31 -38 -32 -48 -1 -9 -2 -24 -3 -32 -1 -8 -6
-24 -12 -35 -6 -11 -8 -27 -6 -35 3 -8 -3 -4 -13 10 -10 14 -22 28 -27 31 -5
4 -5 9 1 13 9 5 10 43 3 87 -1 4 -7 9 -14 12 -16 6 -20 -26 -21 -136 -1 -37
-5 -67 -10 -67 -5 0 -3 -6 4 -14 6 -8 19 -12 27 -9 11 4 14 2 9 -5 -4 -7 -1
-12 8 -12 8 0 18 5 21 10 3 6 12 10 18 10 7 0 4 -7 -5 -14 -14 -10 -18 -28
-18 -80 0 -37 4 -66 10 -66 6 0 10 -4 10 -10 0 -5 -7 -10 -15 -10 -11 0 -15
-12 -15 -50 0 -41 3 -50 18 -50 16 -1 16 -1 0 -14 -24 -17 -26 -114 -3 -122 8
-4 15 -11 15 -16 0 -6 -7 -8 -15 -4 -11 4 -15 -2 -15 -24 0 -16 5 -32 10 -35
6 -3 10 -16 10 -28 0 -22 -1 -22 -20 3 -19 23 -21 24 -34 8 -7 -10 -16 -15
-19 -11 -4 3 -2 12 4 20 15 17 -16 54 -37 46 -18 -7 -18 14 0 24 11 6 12 17 6
43 l-8 35 -2 -30 c-2 -30 -2 -30 -11 -5 -8 23 -8 23 -5 -5 8 -52 -10 -62 -22
-13 -22 87 -43 232 -37 255 3 13 1 23 -5 23 -5 0 -10 -7 -10 -16 0 -8 -5 -12
-11 -8 -15 9 -30 -16 -23 -38 3 -10 0 -18 -6 -18 -12 0 -7 -141 6 -175 5 -11
0 -18 -15 -22 -11 -3 -21 -10 -21 -15 0 -6 -7 -8 -15 -4 -9 3 -15 0 -15 -8 0
-7 7 -19 15 -26 8 -7 15 -19 15 -27 0 -9 8 -13 23 -11 14 2 21 -2 19 -10 -7
-34 96 -124 106 -93 2 6 8 11 13 11 4 0 6 -6 3 -14 -8 -20 52 -32 72 -15 14
12 15 3 10 -86 -3 -55 -8 -147 -12 -205 -3 -57 -8 -108 -11 -113 -2 -4 6 -16
19 -26 13 -11 20 -23 16 -27 -4 -4 -14 -1 -22 5 -12 10 -16 0 -27 -66 -10 -65
-18 -83 -48 -118 -20 -22 -45 -51 -56 -65 l-20 -25 28 24 c15 14 27 20 27 14
0 -14 -34 -43 -51 -43 -8 0 -19 -4 -25 -9 -5 -5 -33 -5 -64 -1 -30 5 -70 9
-88 9 l-33 1 17 -28 c15 -27 20 -28 65 -24 27 2 49 1 49 -4 0 -4 -17 -25 -37
-46 -20 -21 -32 -38 -26 -38 6 0 14 5 16 10 3 6 4 5 3 -2 -2 -7 -11 -12 -21
-11 -21 1 -89 -68 -74 -77 5 -4 -3 -7 -20 -8 -16 0 -40 -6 -52 -12 -14 -8 -19
-8 -15 -1 9 14 -5 14 -38 1 -14 -5 -28 -20 -32 -34 -3 -14 -13 -27 -22 -29
-10 -3 -4 -5 11 -6 16 0 30 5 33 13 6 16 59 38 68 29 3 -3 3 -18 -1 -33 -7
-35 22 -53 84 -52 53 0 138 58 156 106 4 9 13 13 22 10 8 -3 15 -2 15 2 1 23
30 45 49 39 20 -6 30 -35 13 -35 -16 0 -42 -56 -31 -67 24 -24 116 25 104 54
-2 8 0 11 5 8 14 -9 12 18 -2 37 -7 9 -26 23 -43 31 l-30 15 53 52 c55 56 62
66 36 56 -14 -5 -15 -4 -4 9 7 9 19 14 26 11 9 -3 11 0 7 11 -5 13 -2 15 11
10 10 -4 15 -3 11 3 -3 6 5 10 19 10 13 0 32 3 41 6 11 5 8 -2 -8 -20 -14 -15
-24 -37 -23 -51 1 -28 6 -30 25 -12 11 10 13 10 7 0 -14 -24 23 -13 49 15 34
36 29 64 -12 77 -36 10 -39 18 -20 58 11 25 22 31 54 30 7 -1 10 3 7 8 -3 6 8
7 25 4 35 -6 37 -2 19 59 -14 51 -17 54 -28 37 -5 -9 -3 -23 7 -38 15 -22 14
-23 -10 -23 -47 0 -55 8 -51 53 3 37 2 38 -5 12 l-9 -30 -1 32 c0 17 4 35 9
38 6 3 9 18 9 33 l-1 27 -8 -30 c-6 -26 -7 -23 -7 17 1 26 5 42 9 35 5 -8 8
-7 8 6 0 9 -4 17 -10 17 -5 0 -10 5 -10 10 0 21 30 9 36 -15 3 -14 12 -25 20
-25 19 0 18 -9 -3 -33 -17 -19 -17 -20 0 -14 13 5 16 3 10 -5 -12 -21 -10 -46
4 -41 16 6 19 173 3 173 -5 0 -10 5 -10 12 0 9 3 9 12 0 14 -14 48 -16 48 -3
0 5 8 7 18 5 9 -2 28 5 42 16 24 19 24 20 4 20 -20 0 -21 3 -16 100 3 75 1
104 -9 117 -10 12 -10 15 -1 9 6 -4 12 -3 12 3 0 16 -20 23 -34 12 -17 -14
-19 -121 -3 -121 7 -1 5 -6 -4 -13 -8 -7 -24 -25 -35 -41 l-19 -30 -12 40 c-6
21 -12 33 -12 26 -1 -8 -9 -24 -18 -36 -18 -22 -18 -20 -19 53 0 46 2 62 5 41
4 -23 11 20 20 125 7 88 17 169 22 180 7 19 8 19 8 -2 1 -12 6 -23 13 -25 8
-3 6 -14 -7 -36 -15 -25 -17 -34 -7 -44 7 -7 12 -21 12 -32 0 -17 -2 -18 -10
-6 -8 12 -10 10 -10 -8 0 -13 4 -20 10 -17 6 3 10 -1 10 -9 0 -8 -5 -18 -11
-21 -6 -4 -8 -14 -4 -23 3 -8 0 -20 -7 -25 -9 -6 -8 -7 5 -3 21 7 22 -7 2 -24
-8 -7 -15 -24 -15 -39 0 -20 2 -23 10 -11 7 11 10 3 10 -28 0 -24 4 -41 9 -38
5 3 12 90 16 193 9 259 9 263 18 263 4 0 7 -4 7 -10 0 -5 9 -10 20 -10 22 0
27 15 9 26 -8 5 -7 10 4 16 10 5 14 16 11 26 -5 14 -4 15 5 2 8 -12 11 -9 11
15 2 93 6 122 23 139 18 21 25 102 7 91 -6 -3 -7 1 -4 9 3 9 1 16 -5 16 -6 0
-11 -12 -11 -27 0 -22 -2 -25 -10 -13 -5 8 -10 11 -11 5 -1 -5 -3 -21 -5 -35
-3 -14 -6 -50 -8 -80 -4 -62 -29 -122 -40 -95 -3 9 -6 64 -6 122 0 121 -7 136
-11 23 -1 -51 -8 -88 -22 -115 -25 -51 -22 -48 -44 -37 -17 9 -18 28 -18 271
0 285 0 287 -55 231z m9 -153 c0 -21 -1 -21 -9 -2 -12 28 -12 37 0 30 6 -3 10
-16 9 -28z m-109 -3 c0 -8 -4 -12 -10 -9 -5 3 -10 13 -10 21 0 8 5 12 10 9 6
-3 10 -13 10 -21z m40 -45 c0 -6 -4 -7 -10 -4 -5 3 -10 11 -10 16 0 6 5 7 10
4 6 -3 10 -11 10 -16z m63 -59 c3 -11 1 -20 -4 -20 -5 0 -9 9 -9 20 0 11 2 20
4 20 2 0 6 -9 9 -20z m-12 -163 c-8 -8 -11 -3 -11 19 1 25 2 27 11 11 8 -14 8
-22 0 -30z m-256 -38 c11 -17 -1 -21 -15 -4 -8 9 -8 15 -2 15 6 0 14 -5 17
-11z m335 -81 c0 -5 -4 -8 -10 -8 -5 0 -10 10 -10 23 0 18 2 19 10 7 5 -8 10
-18 10 -22z m16 -20 c-6 -48 -22 -70 -32 -45 -3 10 1 29 11 43 9 14 14 32 11
40 -3 9 -1 12 4 9 6 -4 8 -25 6 -47z m-76 21 c0 -5 -4 -9 -10 -9 -5 0 -10 7
-10 16 0 8 5 12 10 9 6 -3 10 -10 10 -16z m-250 -41 c0 -13 -23 -5 -28 10 -2
7 2 10 12 6 9 -3 16 -11 16 -16z m247 -63 c9 -25 -4 -29 -17 -6 -7 15 -7 21 0
21 6 0 13 -7 17 -15z m-227 -47 c0 -6 -6 -5 -15 2 -8 7 -15 14 -15 16 0 2 7 1
15 -2 8 -4 15 -11 15 -16z m289 -28 c0 -28 -4 -50 -9 -50 -6 0 -9 16 -6 38 3
20 5 43 5 50 1 6 3 12 5 12 2 0 4 -22 5 -50z m-233 -38 c-12 -11 -18 7 -10 30
l8 23 4 -23 c2 -13 1 -26 -2 -30z m-67 -13 c-22 -14 -33 -10 -19 6 7 8 17 12
22 9 6 -4 5 -10 -3 -15z m257 -66 c-4 -4 -11 -1 -16 7 -16 25 -11 35 7 17 9
-9 13 -20 9 -24z m31 -5 c-3 -7 -5 -2 -5 12 0 14 2 19 5 13 2 -7 2 -19 0 -25z
m0 -50 c-3 -7 -5 -2 -5 12 0 14 2 19 5 13 2 -7 2 -19 0 -25z m-48 -40 c12 -15
11 -18 -3 -18 -10 0 -16 8 -16 22 0 12 1 19 3 17 1 -2 9 -12 16 -21z m-54 -79
c11 -17 -1 -21 -15 -4 -8 9 -8 15 -2 15 6 0 14 -5 17 -11z m235 -40 c-7 -11
-14 -18 -17 -15 -8 8 5 36 17 36 7 0 7 -6 0 -21z m-46 -43 c-6 -16 -24 -23
-24 -8 0 10 22 33 27 28 2 -2 1 -11 -3 -20z m-137 -33 c-11 -10 -27 8 -27 30
l0 21 16 -22 c9 -13 14 -26 11 -29z m59 -3 c12 0 12 -4 2 -20 -18 -29 -28 -25
-27 13 0 17 3 26 6 20 2 -7 11 -13 19 -13z m-116 -5 c7 -9 10 -18 7 -22 -8 -7
-37 15 -37 28 0 14 16 11 30 -6z m50 -155 c9 -16 8 -20 -5 -20 -8 0 -15 9 -15
20 0 11 2 20 5 20 2 0 9 -9 15 -20z m-23 -167 c29 -9 53 -20 53 -25 0 -11 -18
-10 -25 2 -3 6 -13 10 -21 10 -8 0 -12 -4 -9 -10 3 -5 2 -10 -4 -10 -16 0 -22
18 -9 23 7 3 2 6 -12 6 -14 1 -36 4 -49 8 -18 5 -22 3 -16 -7 5 -9 4 -11 -3
-6 -21 13 -13 26 15 26 14 0 50 -8 80 -17z m-131 -45 c-18 -26 -22 -17 -5 14
6 11 13 17 16 15 3 -3 -2 -16 -11 -29z m31 -10 c-3 -8 -6 -5 -6 6 -1 11 2 17
5 13 3 -3 4 -12 1 -19z m132 15 c0 -5 -4 -17 -9 -28 -8 -18 -9 -17 -9 8 -1 15
4 27 9 27 6 0 10 -3 9 -7z m-89 -67 c0 -2 -7 -7 -16 -10 -8 -3 -12 -2 -9 4 6
10 25 14 25 6z m-313 -32 c-3 -3 -12 -4 -19 -1 -8 3 -5 6 6 6 11 1 17 -2 13
-5z m278 -44 c-3 -5 -12 -10 -18 -10 -7 0 -6 4 3 10 19 12 23 12 15 0z m-40
-120 c3 -6 -1 -7 -9 -4 -18 7 -21 14 -7 14 6 0 13 -4 16 -10z m-43 -102 c-7
-7 -12 -8 -12 -2 0 14 12 26 19 19 2 -3 -1 -11 -7 -17z"/>
<path d="M3405 3412 c7 -26 13 -96 14 -157 1 -60 4 -111 7 -114 2 -2 4 46 4
108 0 105 -13 196 -30 206 -3 2 -1 -17 5 -43z"/>
<path d="M3452 3420 c0 -14 2 -19 5 -12 2 6 2 18 0 25 -3 6 -5 1 -5 -13z"/>
<path d="M10151 3344 c0 -11 3 -14 6 -6 3 7 2 16 -1 19 -3 4 -6 -2 -5 -13z"/>
<path d="M9960 3280 c6 -11 13 -20 16 -20 2 0 0 9 -6 20 -6 11 -13 20 -16 20
-2 0 0 -9 6 -20z"/>
<path d="M968 3253 c7 -3 16 -2 19 1 4 3 -2 6 -13 5 -11 0 -14 -3 -6 -6z"/>
<path d="M453 3219 c-4 -14 -8 -17 -13 -9 -9 15 -46 4 -54 -15 -4 -12 4 -15
34 -15 42 0 73 22 64 45 -9 22 -25 18 -31 -6z"/>
<path d="M3612 3150 c0 -19 2 -27 5 -17 2 9 2 25 0 35 -3 9 -5 1 -5 -18z"/>
<path d="M3091 3120 c0 -8 6 -35 13 -60 8 -25 15 -38 15 -30 0 8 -6 35 -13 60
-8 25 -15 38 -15 30z"/>
<path d="M908 3103 c7 -3 16 -2 19 1 4 3 -2 6 -13 5 -11 0 -14 -3 -6 -6z"/>
<path d="M3608 3087 c-12 -29 -10 -63 3 -50 6 6 9 23 7 39 -2 24 -4 26 -10 11z"/>
<path d="M3572 3052 c-1 -18 -7 -42 -13 -54 -6 -11 -8 -22 -5 -25 10 -10 27
50 23 81 l-4 31 -1 -33z"/>
<path d="M10145 3070 c-3 -5 -1 -10 4 -10 6 0 11 5 11 10 0 6 -2 10 -4 10 -3
0 -8 -4 -11 -10z"/>
<path d="M3579 2973 c-13 -21 -30 -38 -37 -38 -6 0 -12 -3 -12 -7 0 -5 0 -13
0 -20 0 -19 58 42 69 73 13 38 9 36 -20 -8z"/>
<path d="M1455 2959 c-4 -6 -5 -12 -2 -15 2 -3 7 2 10 11 7 17 1 20 -8 4z"/>
<path d="M3122 2940 c0 -19 2 -27 5 -17 2 9 2 25 0 35 -3 9 -5 1 -5 -18z"/>
<path d="M4217 2916 c-7 -17 8 -24 41 -18 30 6 23 26 -10 30 -16 2 -28 -3 -31
-12z"/>
<path d="M10315 2840 c3 -5 8 -10 11 -10 2 0 4 5 4 10 0 6 -5 10 -11 10 -5 0
-7 -4 -4 -10z"/>
<path d="M10158 2818 c5 -5 16 -8 23 -6 8 3 3 7 -10 11 -17 4 -21 3 -13 -5z"/>
<path d="M10340 2748 c0 -5 -13 -8 -30 -8 -16 0 -30 -4 -30 -10 0 -5 -6 -10
-13 -10 -34 0 -34 -22 1 -61 19 -21 38 -37 41 -33 3 3 0 9 -7 13 -10 6 -10 11
3 21 13 11 15 8 11 -23 -3 -23 0 -40 10 -47 32 -28 17 -37 -104 -70 -50 -13
-47 -30 6 -30 20 0 44 -5 52 -10 13 -8 13 -10 1 -10 -11 0 -9 -5 6 -19 19 -18
41 -25 71 -22 19 2 14 31 -5 32 -10 0 -13 3 -6 5 7 4 9 14 3 33 -7 26 -6 28
13 23 11 -3 42 -28 68 -56 43 -46 46 -52 30 -61 -10 -5 -16 -16 -14 -23 3 -8
-1 -10 -12 -6 -15 6 -15 4 -4 -14 14 -22 43 -34 65 -25 11 4 11 8 -1 26 -13
21 -12 22 15 22 15 0 26 -3 23 -8 -4 -7 38 -27 58 -27 6 0 9 40 8 95 l-1 94
-39 42 c-21 23 -36 46 -33 50 3 5 21 9 40 9 27 0 34 4 34 20 0 18 -7 20 -66
20 -60 0 -94 13 -94 35 0 4 -7 14 -16 23 -17 16 -84 24 -84 10z m85 -36 c-3
-3 -11 0 -18 7 -9 10 -8 11 6 5 10 -3 15 -9 12 -12z m-182 -209 c-7 -2 -21 -2
-30 0 -10 3 -4 5 12 5 17 0 24 -2 18 -5z m227 -37 c-7 -7 -13 -7 -20 0 -6 6
-3 10 10 10 13 0 16 -4 10 -10z m7 -112 c-3 -3 -12 -4 -19 -1 -8 3 -5 6 6 6
11 1 17 -2 13 -5z"/>
<path d="M10143 2682 c10 -13 8 -14 -18 -8 -22 5 -27 4 -19 -4 14 -14 81 -22
89 -11 11 19 -7 38 -35 38 -25 0 -28 -3 -17 -15z"/>
<path d="M3560 2421 c-6 -12 -7 -21 -1 -21 10 0 24 30 17 37 -2 3 -9 -5 -16
-16z"/>
<path d="M5865 2390 c4 -12 0 -20 -12 -23 -12 -3 -9 -5 8 -6 33 -1 48 34 17
42 -15 4 -18 1 -13 -13z"/>
<path d="M5820 2380 c0 -17 2 -19 14 -8 14 13 12 28 -5 28 -5 0 -9 -9 -9 -20z"/>
<path d="M5790 2369 c0 -5 5 -7 10 -4 6 3 10 8 10 11 0 2 -4 4 -10 4 -5 0 -10
-5 -10 -11z"/>
<path d="M8575 2290 l6 -75 -22 33 c-27 41 -36 35 -14 -10 14 -29 9 -26 -35
22 l-51 55 32 -58 c17 -32 29 -60 27 -63 -7 -7 -107 75 -119 98 -6 11 -13 17
-16 14 -3 -3 0 -13 8 -22 8 -10 14 -26 14 -38 0 -12 16 -32 42 -51 23 -16 42
-33 42 -36 1 -4 -20 -12 -46 -20 -26 -7 -42 -14 -35 -17 6 -2 27 1 46 8 18 6
52 8 75 4 41 -7 41 -7 24 -27 -18 -19 -17 -20 4 -8 12 6 25 16 28 21 10 16 43
11 48 -7 4 -16 5 -16 6 1 1 10 6 16 14 13 6 -3 21 -8 32 -12 18 -6 18 -5 2 5
-9 6 -15 15 -12 21 4 5 0 9 -7 9 -7 1 17 16 54 35 36 19 70 39 73 45 4 6 -20
-3 -54 -19 -33 -17 -63 -31 -67 -31 -3 0 13 23 36 50 48 57 45 63 -11 19 l-39
-31 10 27 c5 14 10 36 10 48 -1 15 -9 5 -26 -31 l-26 -54 -25 74 c-13 40 -27
75 -30 78 -2 3 -2 -29 2 -70z"/>
<path d="M8246 2171 c-4 -5 -3 -17 0 -28 5 -14 3 -13 -10 4 -14 19 -20 21 -41
11 -43 -19 -31 -38 25 -38 28 0 50 3 50 8 0 4 3 17 6 30 5 16 2 22 -9 22 -9 0
-18 -4 -21 -9z"/>
<path d="M8333 2132 c-18 -9 -33 -20 -33 -24 0 -11 57 12 71 28 15 18 2 17
-38 -4z"/>
<path d="M10054 2104 c-4 -11 -14 -27 -22 -36 -20 -24 -9 -23 38 5 38 21 51
37 31 37 -5 0 -16 3 -25 6 -10 4 -18 -1 -22 -12z"/>
<path d="M2796 1875 c-3 -8 7 -28 21 -45 24 -29 27 -30 42 -15 15 14 13 18
-18 45 -39 35 -37 34 -45 15z"/>
<path d="M2730 1823 c-25 -10 -40 -31 -34 -46 7 -20 54 -28 79 -14 11 6 23 10
28 9 14 -4 7 9 -19 33 -28 26 -30 27 -54 18z"/>
<path d="M7377 1662 c-17 -3 -17 -18 -13 -228 3 -142 2 -224 -4 -224 -6 0 -9
-29 -7 -70 2 -41 -2 -72 -8 -74 -5 -2 -4 -5 3 -5 6 -1 12 -11 12 -23 0 -18 -2
-20 -9 -9 -7 11 -10 7 -13 -15 -2 -16 -7 -28 -13 -27 -5 1 -13 -7 -17 -18 -7
-18 -28 -27 -28 -11 0 4 -12 7 -27 6 -42 -2 -43 -3 -43 -20 0 -8 -5 -12 -10
-9 -8 5 -7 11 0 20 15 18 3 58 -16 51 -16 -6 -20 19 -4 29 13 8 13 62 1 70 -5
3 -12 1 -16 -5 -4 -6 -11 -8 -16 -5 -5 4 -9 -26 -9 -72 0 -54 -3 -73 -10 -63
-15 24 -11 -2 5 -30 18 -32 18 -40 1 -40 -31 0 -25 -21 15 -47 37 -24 42 -25
50 -10 6 9 15 17 21 17 7 0 6 -5 -2 -15 -8 -10 -9 -15 -2 -15 6 0 12 -21 14
-47 3 -45 5 -48 31 -48 16 0 32 -7 37 -16 12 -20 16 -436 6 -446 -5 -5 -5 2
-2 15 6 18 3 22 -12 22 -11 0 -22 4 -24 10 -2 6 -9 6 -17 0 -12 -7 -9 -10 12
-15 17 -5 27 -14 27 -25 0 -11 4 -21 10 -25 12 -8 2 -32 -16 -39 -8 -3 -13 -2
-10 3 3 5 -1 11 -9 15 -8 3 -15 11 -15 17 0 8 4 8 15 -1 8 -6 20 -10 27 -7 9
3 6 7 -7 12 -32 12 -55 36 -55 57 0 10 4 18 8 18 9 0 7 168 -2 177 -3 4 -6 -5
-7 -18 0 -13 -2 -31 -3 -39 -2 -8 -7 -61 -10 -117 -8 -106 -7 -109 31 -104 6
1 14 -8 18 -19 4 -12 11 -17 18 -14 7 4 8 3 4 -1 -4 -5 -13 -10 -20 -11 -7 -1
-19 -3 -27 -5 -8 -2 -14 1 -15 8 0 7 -6 18 -12 24 -11 11 -13 8 -13 -14 0 -32
21 -56 110 -123 36 -26 67 -52 68 -56 2 -4 115 -8 250 -7 235 0 246 1 223 17
-30 21 -127 41 -203 41 -56 1 -57 1 -107 59 -28 31 -51 63 -51 70 0 6 -7 12
-15 12 -17 0 -20 17 -4 22 7 2 8 29 3 82 -6 70 -9 77 -21 61 -9 -14 -16 -16
-24 -8 -15 15 36 50 90 62 42 9 66 21 43 21 -7 0 -12 7 -12 17 0 15 1 15 18 0
17 -16 20 -15 41 6 13 15 19 30 15 40 -4 12 -1 17 10 17 10 0 23 15 32 35 18
43 17 45 -1 45 -8 0 -15 5 -15 10 0 6 9 10 19 10 25 0 35 67 13 79 -12 7 -10
14 12 37 15 16 32 37 37 47 9 16 8 17 -8 8 -17 -9 -19 -7 -15 20 6 38 -5 69
-18 49 -7 -11 -12 -10 -28 10 l-19 23 -6 -104 c-4 -57 -12 -124 -20 -148 -13
-45 -37 -67 -37 -34 0 14 -3 13 -13 -6 -14 -28 -41 -42 -31 -17 3 9 1 16 -4
16 -6 0 -14 -9 -17 -20 -3 -11 -15 -20 -26 -20 -16 0 -19 7 -19 49 0 43 -3 50
-22 54 l-23 4 23 8 c19 6 22 15 23 64 1 31 1 62 0 69 -1 6 3 12 9 12 5 0 10
-5 10 -11 0 -7 9 -5 24 5 18 12 26 12 29 3 3 -7 6 -4 6 6 1 10 -6 20 -14 23
-11 5 -12 11 -5 24 13 25 13 43 -1 34 -6 -3 -4 7 5 23 13 26 13 33 1 50 -8 11
-14 44 -14 79 0 32 -3 71 -6 87 -5 17 -3 27 4 27 6 0 11 -9 11 -20 0 -11 6
-20 14 -20 8 0 17 -6 19 -12 4 -8 6 -7 6 3 1 9 8 19 16 23 9 3 12 12 8 22 -5
14 -3 16 11 11 13 -5 21 2 32 29 8 19 12 44 9 55 -4 10 -2 19 3 19 15 0 22 54
9 62 -9 5 -7 11 5 20 19 15 35 98 19 98 -8 0 -7 6 1 19 9 15 9 25 1 43 -7 13
-13 32 -15 42 -2 11 -9 21 -15 24 -9 2 -13 -9 -13 -37 0 -32 4 -41 18 -41 14
0 14 -3 -5 -18 -17 -12 -30 -47 -51 -127 -27 -104 -30 -110 -56 -113 -19 -2
-26 1 -24 10 3 14 -9 18 -30 10 -7 -2 -15 -3 -17 0 -5 5 -12 84 -18 186 -2 35
-8 67 -14 70 -5 4 -10 22 -10 40 0 18 -7 38 -16 45 -8 6 -17 21 -19 32 -2 14
-9 19 -21 17z m14 -183 l-10 -24 0 26 c-1 14 2 29 6 33 12 12 14 -9 4 -35z
m251 -81 c-6 -6 -15 -8 -19 -4 -4 4 -1 11 7 16 19 12 27 3 12 -12z m-239 -37
c-4 -16 -8 -19 -14 -10 -4 7 -3 19 3 26 14 18 19 12 11 -16z m74 -148 c-9 -9
-19 -14 -23 -11 -10 10 6 28 24 28 15 0 15 -1 -1 -17z m-66 -24 c-9 -22 -10
-22 -10 -3 -1 11 2 24 6 27 12 12 14 0 4 -24z m59 -125 c0 -8 -4 -12 -10 -9
-5 3 -10 10 -10 16 0 5 5 9 10 9 6 0 10 -7 10 -16z m-74 -20 c-4 -9 -9 -15
-11 -12 -3 3 -3 13 1 22 4 9 9 15 11 12 3 -3 3 -13 -1 -22z m82 -63 c3 -8 -1
-12 -9 -9 -7 2 -15 10 -17 17 -3 8 1 12 9 9 7 -2 15 -10 17 -17z m-105 -41
c-6 -22 -21 -35 -30 -26 -5 5 24 46 33 46 1 0 0 -9 -3 -20z m53 -37 c-11 -11
-19 6 -11 24 8 17 8 17 12 0 3 -10 2 -21 -1 -24z m84 25 c0 -22 -17 -41 -30
-33 -8 5 -7 12 6 26 20 22 24 23 24 7z m-243 -43 c10 -27 -6 -30 -29 -7 l-22
22 22 0 c12 0 25 -7 29 -15z m181 -30 c-12 -27 -28 -33 -28 -10 0 11 23 33 37
35 2 0 -3 -11 -9 -25z m-268 5 c0 -5 -7 -10 -16 -10 -8 0 -12 5 -9 10 3 6 10
10 16 10 5 0 9 -4 9 -10z m132 -62 c-13 -13 -26 8 -17 30 6 16 7 16 17 -1 7
-13 7 -22 0 -29z m118 -3 c14 -16 10 -18 -14 -9 -9 3 -16 10 -16 15 0 14 16
11 30 -6z m-50 -51 c0 -15 -22 -44 -30 -39 -6 4 -5 14 3 25 11 19 27 27 27 14z
m1 -157 c-16 -16 -26 0 -10 19 9 11 15 12 17 4 2 -6 -1 -17 -7 -23z m135 -94
c-5 -12 -10 -13 -17 -6 -8 8 -7 18 2 34 12 21 14 22 17 6 2 -10 1 -25 -2 -34z
m-56 28 c0 -13 -29 -35 -37 -28 -7 8 15 37 28 37 5 0 9 -4 9 -9z m-69 -124
c-16 -16 -26 0 -10 19 9 11 15 12 17 4 2 -6 -1 -17 -7 -23z m14 -87 c-3 -5
-15 -15 -26 -20 -15 -8 -19 -7 -19 4 0 13 14 21 43 25 5 0 5 -3 2 -9z m-24
-123 c-16 -16 -26 0 -10 19 9 11 15 12 17 4 2 -6 -1 -17 -7 -23z"/>
<path d="M1457 1652 c-3 -4 -7 -36 -8 -70 -2 -51 1 -65 17 -77 26 -20 43 -19
39 3 -2 9 -4 20 -4 25 -1 4 -8 7 -17 7 -12 0 -14 3 -6 13 14 17 10 99 -5 104
-6 2 -14 0 -16 -5z"/>
<path d="M3759 1628 c-7 -13 -17 -26 -23 -30 -23 -15 10 -8 46 10 36 19 38 34
6 40 -9 1 -22 -7 -29 -20z"/>
<path d="M7315 1508 c-4 -79 -5 -161 -3 -183 2 -22 7 40 12 138 4 98 6 180 3
183 -3 3 -8 -59 -12 -138z"/>
<path d="M1624 1608 c-5 -7 -9 -83 -11 -168 -5 -272 -15 -402 -33 -408 -6 -2
-10 -10 -10 -19 0 -8 -6 -13 -12 -11 -9 3 -15 42 -18 129 l-6 124 -2 -124 c-2
-108 -4 -122 -17 -111 -13 10 -15 9 -15 -9 0 -11 -4 -21 -10 -21 -5 0 -10 16
-10 36 0 21 -4 33 -10 29 -5 -3 -10 -2 -10 4 0 5 4 12 9 15 5 4 5 23 0 48 -12
53 -19 64 -30 47 -13 -21 -11 -29 7 -29 8 0 12 -5 9 -10 -4 -6 -11 -7 -17 -4
-7 5 -9 -14 -6 -59 2 -36 0 -63 -4 -61 -4 3 -3 -7 2 -22 8 -21 7 -29 -5 -38
-10 -7 -12 -16 -6 -25 8 -13 12 -13 28 0 16 13 17 13 4 -3 -12 -16 -10 -20 23
-33 30 -13 36 -20 36 -45 0 -19 7 -33 20 -40 11 -6 20 -18 20 -26 0 -8 5 -12
10 -9 7 4 10 -53 10 -165 0 -113 -3 -169 -10 -165 -6 4 -8 11 -4 16 3 5 0 8
-7 7 -17 -4 -27 46 -21 98 2 25 0 44 -7 48 -8 5 -11 -16 -10 -74 1 -66 4 -83
18 -88 23 -8 40 -34 40 -57 -1 -16 -2 -15 -9 5 -6 21 -8 22 -14 8 -7 -15 -13
-42 -15 -61 -1 -5 -6 -5 -11 -2 -11 7 -40 -17 -40 -33 0 -9 -46 -55 -131 -131
-41 -36 -52 -41 -95 -41 -27 -1 -67 -7 -89 -15 -22 -8 -57 -15 -78 -15 -21 0
-47 -5 -58 -10 -27 -15 -24 -40 5 -40 15 0 26 -7 28 -16 2 -10 15 -18 33 -20
28 -3 52 8 118 51 38 24 33 12 -10 -29 l-38 -36 120 0 120 0 84 77 c97 90 111
100 111 79 0 -9 -16 -30 -35 -47 -19 -18 -35 -37 -35 -43 0 -21 35 -32 100
-31 64 0 65 0 66 28 1 15 8 35 16 45 28 32 28 60 1 82 -14 11 -33 20 -43 20
-32 0 -29 12 16 55 45 44 49 65 17 92 -9 7 -11 13 -4 18 6 3 11 42 11 89 l0
84 30 5 c23 5 28 10 23 24 -6 16 -4 16 9 5 22 -18 60 5 52 30 -3 12 0 18 9 18
8 0 20 14 26 31 14 40 14 39 -6 40 -14 0 -13 3 5 11 16 8 22 20 22 45 0 18 -5
33 -11 33 -6 0 -2 12 9 28 31 45 34 52 19 47 -10 -4 -12 3 -9 31 4 30 2 36
-11 31 -9 -3 -18 1 -21 9 -12 32 -22 10 -24 -58 -1 -40 -5 -84 -7 -98 -3 -14
-7 -36 -10 -49 -5 -29 -25 -53 -25 -31 0 10 -8 6 -21 -10 -16 -20 -20 -21 -15
-6 7 19 6 19 -12 3 -10 -9 -22 -14 -25 -10 -4 3 -7 48 -7 99 0 90 0 92 -22 88
l-23 -5 23 17 c17 13 22 26 22 61 0 38 -2 44 -14 34 -10 -9 -16 -9 -21 -1 -4
7 2 14 14 17 18 5 21 13 21 59 0 40 -4 56 -17 63 -10 6 -12 11 -5 11 6 0 12 6
12 14 0 9 17 16 50 21 27 4 52 11 56 16 3 5 0 9 -6 9 -6 0 -9 4 -5 10 3 5 12
7 20 3 10 -3 20 6 30 31 19 44 19 50 0 42 -8 -3 -15 -1 -15 4 0 6 6 10 14 10
7 0 16 10 20 23 8 32 8 35 -11 40 -17 4 -17 5 0 6 9 0 17 9 18 19 0 9 2 27 3
40 2 13 -1 25 -6 28 -5 3 -5 11 1 18 7 8 6 20 -3 38 -8 15 -11 30 -8 33 8 7
-26 35 -42 35 -6 0 -5 -4 2 -9 7 -4 14 -22 14 -39 1 -18 5 -32 11 -32 5 0 4
-7 -3 -15 -7 -8 -10 -29 -8 -46 3 -19 -3 -45 -14 -67 -10 -20 -18 -43 -18 -52
0 -9 -5 -21 -12 -28 -17 -17 -48 -15 -48 3 0 8 -6 12 -14 9 -21 -8 -35 26 -36
87 -1 76 -21 181 -38 201 -8 9 -11 21 -8 27 4 5 2 12 -3 15 -5 4 -13 1 -17 -6z
m7 -155 c-8 -15 -10 -15 -11 -2 0 17 10 32 18 25 2 -3 -1 -13 -7 -23z m13 -98
c-4 -8 -8 -15 -10 -15 -2 0 -4 7 -4 15 0 8 4 15 10 15 5 0 7 -7 4 -15z m56
-130 c-7 -9 -15 -13 -17 -11 -7 7 7 26 19 26 6 0 6 -6 -2 -15z m-53 -27 c-3
-7 -5 -2 -5 12 0 14 2 19 5 13 2 -7 2 -19 0 -25z m-15 -120 c-7 -7 -12 -8 -12
-2 0 14 12 26 19 19 2 -3 -1 -11 -7 -17z m3 -107 c-3 -6 -11 -11 -17 -11 -6 0
-6 6 2 15 14 17 26 13 15 -4z m-105 -21 c10 -6 12 -12 5 -19 -7 -7 -14 -4 -23
9 -13 21 -6 25 18 10z m-38 -52 c-7 -7 -12 -8 -12 -2 0 14 12 26 19 19 2 -3
-1 -11 -7 -17z m80 -32 c-3 -5 -9 -1 -12 10 -4 10 -5 23 -2 28 3 5 9 1 12 -10
4 -10 5 -23 2 -28z m39 -69 c-8 -8 -11 -7 -11 4 0 20 13 34 18 19 3 -7 -1 -17
-7 -23z m89 -37 c0 -5 -7 -10 -15 -10 -8 0 -15 5 -15 10 0 6 7 10 15 10 8 0
15 -4 15 -10z m-67 -60 c-3 -11 -9 -20 -14 -20 -11 0 -11 3 -3 24 9 23 23 20
17 -4z m102 -79 c-3 -12 -11 -19 -16 -16 -5 4 -5 14 2 26 13 26 23 18 14 -10z
m-51 4 c-6 -16 -24 -21 -24 -7 0 11 11 22 21 22 5 0 6 -7 3 -15z m-44 -85 c-6
-11 -16 -20 -22 -20 -6 0 -3 9 7 20 10 11 20 20 22 20 2 0 -1 -9 -7 -20z m42
-42 c-6 -6 -15 -8 -19 -4 -4 4 -1 11 7 16 19 12 27 3 12 -12z m-42 -47 c0 -12
-20 -25 -27 -18 -7 7 6 27 18 27 5 0 9 -4 9 -9z m-7 -91 c-3 -11 -9 -20 -14
-20 -11 0 -11 3 -3 24 9 23 23 20 17 -4z"/>
<path d="M1582 1580 c0 -14 2 -19 5 -12 2 6 2 18 0 25 -3 6 -5 1 -5 -13z"/>
<path d="M1578 1543 c-3 -4 -5 -51 -5 -103 l-1 -95 8 100 c7 97 7 115 -2 98z"/>
<path d="M7120 1529 c0 -5 5 -7 10 -4 6 3 10 8 10 11 0 2 -4 4 -10 4 -5 0 -10
-5 -10 -11z"/>
<path d="M7170 1492 c-2 -26 -5 -77 -5 -114 0 -38 -4 -68 -8 -68 -4 0 -3 -9 4
-21 10 -19 9 -20 -13 -14 l-23 8 20 -22 c13 -15 26 -20 42 -16 17 4 21 2 17
-10 -4 -8 -1 -15 5 -15 7 0 11 30 11 86 0 54 -4 83 -10 79 -5 -3 -10 1 -10 9
0 8 5 18 10 21 6 3 10 15 10 26 0 11 -4 17 -10 14 -5 -3 -10 -2 -10 4 0 5 4
12 9 15 12 8 -10 66 -24 66 -5 0 -12 -21 -15 -48z m27 -157 c8 -22 -6 -33 -17
-15 -13 20 -12 30 0 30 6 0 13 -7 17 -15z"/>
<path d="M1410 1491 c0 -6 4 -13 10 -16 6 -3 7 1 4 9 -7 18 -14 21 -14 7z"/>
<path d="M1450 1490 c-1 -8 -2 -21 -1 -27 1 -7 -3 -13 -10 -13 -8 0 -8 -4 1
-15 7 -9 19 -14 27 -11 7 3 13 1 13 -4 0 -6 5 -10 10 -10 11 0 13 30 4 54 -3
9 -12 16 -19 16 -7 0 -16 6 -18 13 -4 8 -6 8 -7 -3z"/>
<path d="M7102 1410 c0 -14 2 -19 5 -12 2 6 2 18 0 25 -3 6 -5 1 -5 -13z"/>
<path d="M7542 1380 c0 -19 2 -27 5 -17 2 9 2 25 0 35 -3 9 -5 1 -5 -18z"/>
<path d="M1752 1375 c0 -16 2 -22 5 -12 2 9 2 23 0 30 -3 6 -5 -1 -5 -18z"/>
<path d="M10283 1375 c4 -16 9 -52 13 -80 l6 -50 -26 30 c-14 17 -25 25 -26
20 0 -6 5 -16 11 -22 6 -6 10 -16 8 -22 -2 -6 -22 11 -44 38 -41 53 -62 63
-26 13 11 -16 25 -41 31 -56 9 -25 9 -26 -12 -15 -12 6 -44 32 -72 58 -46 43
-54 41 -17 -3 15 -18 15 -19 -4 -13 -11 4 4 -15 33 -41 l52 -49 -39 -11 c-48
-15 -81 -15 -81 -2 0 6 -20 0 -44 -14 -51 -28 -72 -20 -53 21 9 19 8 26 -4 33
-8 6 -15 6 -17 0 -2 -6 -7 -8 -12 -5 -4 3 -6 -5 -2 -17 5 -20 4 -21 -11 -10
-21 18 -53 7 -60 -19 -4 -15 -2 -19 8 -15 8 3 17 1 20 -4 4 -6 1 -10 -6 -10
-22 0 1 -14 42 -26 33 -10 47 -9 89 6 27 10 51 16 54 13 2 -2 15 2 28 10 12 8
37 17 53 21 l30 6 -25 -15 -25 -16 30 6 c17 4 43 9 59 11 l29 3 -22 -22 c-11
-13 -21 -26 -21 -30 0 -6 60 30 87 52 8 7 16 3 27 -12 13 -19 15 -20 15 -4 1
13 6 17 21 13 11 -3 29 -9 40 -12 27 -7 25 4 -2 17 -18 7 -14 8 22 5 31 -4 39
-2 25 4 -11 5 -32 9 -47 9 -44 1 -41 17 10 40 26 11 58 30 72 41 21 18 17 17
-27 -4 -73 -36 -81 -33 -39 19 44 53 39 57 -16 13 -37 -29 -40 -30 -34 -10 3
12 9 31 12 42 11 39 -11 19 -30 -26 l-19 -46 -28 77 c-31 84 -45 108 -36 60z"/>
<path d="M7110 1335 c0 -5 5 -17 10 -25 5 -8 10 -10 10 -5 0 6 -5 17 -10 25
-5 8 -10 11 -10 5z"/>
<path d="M1572 1305 c0 -16 2 -22 5 -12 2 9 2 23 0 30 -3 6 -5 -1 -5 -18z"/>
<path d="M1532 1295 c0 -16 2 -22 5 -12 2 9 2 23 0 30 -3 6 -5 -1 -5 -18z"/>
<path d="M1572 1250 c0 -14 2 -19 5 -12 2 6 2 18 0 25 -3 6 -5 1 -5 -13z"/>
<path d="M6641 1185 c0 -16 4 -49 8 -72 10 -51 2 -55 -23 -12 -23 40 -32 31
-11 -13 14 -29 10 -26 -36 22 l-51 55 31 -56 c17 -31 31 -59 31 -63 0 -15 -64
31 -101 73 -21 24 -39 39 -39 34 0 -6 7 -16 15 -23 9 -7 13 -21 10 -30 -4 -12
6 -28 30 -49 20 -17 40 -31 45 -31 25 0 6 -18 -31 -29 -50 -15 -45 -26 5 -12
22 6 48 6 68 1 17 -5 36 -7 42 -3 6 4 2 -4 -9 -16 l-20 -23 28 13 c15 7 27 16
27 21 0 15 29 8 39 -9 10 -17 10 -17 11 1 0 10 5 16 13 13 6 -3 21 -8 32 -12
l20 -8 -20 16 c-11 9 -15 17 -10 17 6 0 4 4 -3 9 -9 5 1 14 35 29 53 23 114
62 98 62 -5 0 -23 -8 -40 -18 -16 -10 -43 -23 -59 -30 -32 -14 -34 -18 23 58
25 34 18 33 -37 -7 l-23 -16 6 44 6 44 -27 -55 -27 -55 -8 35 c-4 19 -17 55
-28 80 -19 42 -21 43 -20 15z"/>
<path d="M1421 1184 c0 -11 3 -14 6 -6 3 7 2 16 -1 19 -3 4 -6 -2 -5 -13z"/>
<path d="M7120 1173 c0 -5 5 -15 10 -23 8 -12 10 -11 10 8 0 12 -4 22 -10 22
-5 0 -10 -3 -10 -7z"/>
<path d="M1328 1119 c-2 -22 0 -43 4 -45 5 -3 3 -14 -2 -24 -8 -15 -6 -21 9
-30 14 -7 21 -7 24 3 3 9 8 8 22 -3 17 -13 18 -13 10 0 -5 8 -10 21 -11 29 -2
7 -11 19 -22 26 -13 10 -17 22 -14 43 2 16 -1 32 -6 36 -6 3 -12 -11 -14 -35z"/>
<path d="M7151 1141 c-15 -26 -12 -31 10 -22 11 4 14 12 9 26 -7 19 -7 19 -19
-4z"/>
<path d="M1360 1115 c0 -8 4 -15 10 -15 5 0 7 7 4 15 -4 8 -8 15 -10 15 -2 0
-4 -7 -4 -15z"/>
<path d="M7263 1075 c0 -33 2 -45 4 -27 2 18 2 45 0 60 -2 15 -4 0 -4 -33z"/>
<path d="M7050 1086 c0 -8 5 -18 10 -21 6 -3 10 3 10 14 0 12 -4 21 -10 21 -5
0 -10 -6 -10 -14z"/>
<path d="M7570 1076 c0 -14 5 -26 10 -26 6 0 10 9 10 19 0 11 -4 23 -10 26 -6
4 -10 -5 -10 -19z"/>
<path d="M7313 1050 c0 -25 2 -35 4 -22 2 12 2 32 0 45 -2 12 -4 2 -4 -23z"/>
<path d="M6311 1013 c13 -34 11 -41 -6 -19 -17 23 -65 15 -65 -12 0 -14 9 -17
46 -16 48 1 66 15 62 48 -2 12 -12 20 -25 21 -18 1 -20 -2 -12 -22z"/>
<path d="M7060 1013 c0 -20 17 -50 24 -43 2 3 2 17 -1 33 -6 30 -23 37 -23 10z"/>
<path d="M7578 1024 c-5 -4 -8 -23 -8 -43 0 -25 3 -32 11 -24 6 6 9 25 7 43
-2 17 -6 28 -10 24z"/>
<path d="M1390 985 c0 -8 4 -15 10 -15 5 0 7 7 4 15 -4 8 -8 15 -10 15 -2 0
-4 -7 -4 -15z"/>
<path d="M6405 979 c-29 -13 -34 -19 -19 -19 12 0 32 9 45 20 29 24 25 24 -26
-1z"/>
<path d="M6420 954 c-14 -8 -18 -14 -10 -13 8 0 26 6 40 14 14 8 18 14 10 14
-8 -1 -26 -7 -40 -15z"/>
<path d="M7087 953 c-10 -16 3 -43 20 -43 11 0 13 4 6 13 -6 6 -12 19 -15 27
-3 9 -7 10 -11 3z"/>
<path d="M7555 901 c-13 -26 -13 -31 -1 -31 7 0 16 12 19 28 7 38 1 39 -18 3z"/>
<path d="M1811 910 c-1 -8 -4 -26 -7 -40 -5 -22 -4 -23 6 -7 6 10 9 28 7 40
-2 12 -5 15 -6 7z"/>
<path d="M7612 849 c-1 -9 -5 -32 -8 -50 -4 -28 -3 -31 6 -16 6 9 9 32 7 50
-2 17 -5 25 -5 16z"/>
<path d="M490 750 c25 -110 25 -110 -11 -61 -35 49 -49 49 -23 -1 l17 -33 -23
20 c-13 11 -40 37 -61 58 -21 20 -40 37 -44 37 -7 0 7 -20 64 -90 l34 -42 -54
27 c-30 15 -73 43 -96 62 -80 64 -43 9 50 -74 25 -24 44 -43 42 -43 -3 0 -42
18 -86 41 -44 22 -85 39 -91 37 -5 -2 28 -24 75 -48 80 -42 84 -46 64 -57 -22
-12 -21 -12 6 -13 31 0 36 -16 8 -25 -11 -3 -25 -13 -32 -21 -10 -12 -1 -11
41 5 30 11 56 19 58 17 3 -4 -18 -32 -46 -62 -24 -25 3 -15 47 18 46 34 47 33
24 -29 -7 -18 7 -16 29 4 10 9 18 12 18 6 0 -6 44 -10 106 -10 71 0 109 -4
113 -12 5 -7 39 -17 77 -23 106 -16 106 -16 117 15 12 38 -5 77 -34 77 -18 0
-20 -4 -14 -27 6 -26 5 -26 -8 -9 -9 13 -20 16 -35 12 -12 -4 -22 -12 -22 -17
0 -13 -77 -11 -86 3 -4 6 1 17 10 24 16 12 16 12 -1 16 -10 2 -31 -1 -46 -6
-20 -8 -30 -8 -35 1 -8 13 -52 6 -52 -7 0 -15 -56 -21 -84 -10 -59 22 -5 89
80 100 38 4 48 11 67 39 14 22 16 32 7 26 -8 -5 0 10 18 33 19 23 31 42 27 42
-19 0 -99 -69 -129 -112 -16 -22 -16 -22 -16 12 0 45 -10 81 -20 75 -5 -3 -13
9 -19 27 -6 18 -20 44 -31 58 -19 25 -19 24 0 -60z"/>
<path d="M7538 760 c-2 -22 0 -40 4 -40 5 0 8 18 8 40 0 22 -2 40 -4 40 -2 0
-6 -18 -8 -40z"/>
<path d="M1510 754 c0 -27 3 -35 9 -25 5 8 8 23 5 34 -6 36 -14 31 -14 -9z"/>
<path d="M1790 756 c0 -31 6 -34 13 -6 3 11 1 23 -4 26 -5 3 -9 -6 -9 -20z"/>
<path d="M4775 718 l7 -43 -22 20 -23 20 12 -25 c10 -19 5 -17 -18 10 -33 38
-41 35 -15 -6 27 -41 6 -40 -38 2 -23 21 -36 31 -29 22 7 -9 10 -22 7 -27 -4
-6 7 -20 24 -33 28 -20 30 -24 14 -35 -14 -11 -10 -12 29 -9 49 3 55 -1 35
-24 -7 -8 -2 -6 10 5 15 12 35 19 55 17 23 -2 28 0 18 7 -11 7 -4 14 33 31 26
13 45 25 42 27 -2 2 -18 -3 -35 -11 -44 -23 -48 -20 -16 14 30 31 25 42 -7 13
-17 -15 -18 -15 -18 8 -1 23 -1 23 -17 -6 l-16 -30 -14 48 c-17 59 -27 61 -18
5z"/>
<path d="M8905 732 c65 -62 175 -204 254 -328 l49 -76 -91 -74 c-51 -41 -99
-74 -108 -74 -50 0 -114 36 -175 99 -35 36 -64 69 -64 73 0 19 -74 4 -150 -30
-19 -8 -55 -21 -80 -28 -41 -12 -35 -13 71 -8 64 4 126 3 137 0 12 -4 31 -25
43 -46 26 -46 81 -73 194 -95 100 -19 175 -54 223 -104 33 -35 45 -41 80 -41
23 0 42 4 42 8 0 25 -111 98 -184 122 l-39 13 44 39 c24 22 64 57 88 77 l44
37 -28 45 c-64 100 -317 390 -354 404 -12 5 -11 2 4 -13z"/>
<path d="M7597 723 c-7 -12 -12 -81 -6 -87 3 -3 6 9 7 27 1 18 5 40 8 50 5 17
-1 24 -9 10z"/>
<path d="M7282 695 c6 -14 13 -24 14 -22 6 6 -9 47 -17 47 -5 0 -3 -11 3 -25z"/>
<path d="M1510 672 c0 -23 5 -42 10 -42 6 0 9 15 7 35 -5 51 -17 55 -17 7z"/>
<path d="M7230 605 c0 -53 4 -94 8 -91 12 7 12 175 1 182 -5 3 -9 -35 -9 -91z"/>
<path d="M7532 660 c-1 -16 2 -30 8 -30 5 0 10 14 10 30 0 17 -4 30 -8 30 -4
0 -9 -13 -10 -30z"/>
<path d="M943 655 c-10 -7 -35 -17 -54 -22 -59 -16 -28 -27 82 -29 61 -2 129
-9 159 -18 30 -9 72 -15 94 -15 l41 1 -52 10 c-51 9 -72 27 -35 29 72 3 90 15
36 24 -22 3 -50 9 -64 12 -14 4 -53 6 -86 4 -34 -2 -71 2 -81 8 -15 7 -25 6
-40 -4z"/>
<path d="M8541 607 c-1 -5 4 -17 9 -28 6 -11 7 -19 1 -19 -5 0 -11 7 -15 15
-4 12 -10 13 -31 3 -14 -6 -25 -15 -25 -19 0 -4 -12 -9 -27 -11 -16 -2 5 -4
44 -5 63 -2 74 1 83 18 13 23 4 43 -15 35 -8 -3 -16 0 -19 7 -2 7 -5 8 -5 4z"/>
<path d="M800 579 c-11 -19 -10 -20 10 -9 12 6 28 9 36 6 8 -3 14 -1 14 3 0 9
-24 21 -40 21 -5 0 -14 -9 -20 -21z"/>
<path d="M2457 493 c-13 -3 -16 -11 -11 -31 5 -25 4 -25 -7 -7 -7 11 -13 21
-14 23 -6 7 -55 -23 -55 -33 0 -13 -59 -13 -79 -1 -6 4 -11 3 -11 -2 0 -15
126 -62 164 -62 34 0 34 0 38 53 5 57 1 65 -25 60z"/>
<path d="M1510 395 c0 -14 5 -25 10 -25 6 0 10 11 10 25 0 14 -4 25 -10 25 -5
0 -10 -11 -10 -25z"/>
<path d="M5812 338 c-7 -7 -12 -17 -12 -24 0 -17 -49 -47 -70 -41 -9 2 -25 0
-34 -5 -14 -8 -12 -13 20 -35 34 -23 41 -24 80 -13 25 7 46 21 52 33 15 30 19
82 7 82 -5 0 -15 3 -21 7 -6 4 -16 2 -22 -4z"/>
</g>
</svg>
